<?xml version="1.0" encoding="utf-8" standalone="no"?>
<!DOCTYPE svg PUBLIC "-//W3C//DTD SVG 1.1//EN"
  "http://www.w3.org/Graphics/SVG/1.1/DTD/svg11.dtd">
<svg xmlns:xlink="http://www.w3.org/1999/xlink" width="1105.92pt" height="548.928pt" viewBox="0 0 1105.92 548.928" xmlns="http://www.w3.org/2000/svg" version="1.1">
 <metadata>
  <rdf:RDF xmlns:dc="http://purl.org/dc/elements/1.1/" xmlns:cc="http://creativecommons.org/ns#" xmlns:rdf="http://www.w3.org/1999/02/22-rdf-syntax-ns#">
   <cc:Work>
    <dc:type rdf:resource="http://purl.org/dc/dcmitype/StillImage"/>
    <dc:date>2022-07-24T14:12:17.725153</dc:date>
    <dc:format>image/svg+xml</dc:format>
    <dc:creator>
     <cc:Agent>
      <dc:title>Matplotlib v3.5.2, https://matplotlib.org/</dc:title>
     </cc:Agent>
    </dc:creator>
   </cc:Work>
  </rdf:RDF>
 </metadata>
 <defs>
  <style type="text/css">*{stroke-linejoin: round; stroke-linecap: butt}</style>
 </defs>
 <g id="figure_1">
  <g id="patch_1">
   <path d="M 0 548.928 
L 1105.92 548.928 
L 1105.92 0 
L 0 0 
z
" style="fill: #ffffff"/>
  </g>
  <g id="axes_1">
   <g id="patch_2">
    <path d="M 149.562514 499.785874 
L 943.7184 499.785874 
L 943.7184 0 
L 149.562514 0 
z
" style="fill: #ffffff"/>
   </g>
   <g id="patch_3">
    <path d="M 199.197257 499.785874 
L 298.466743 499.785874 
L 298.466743 483.801609 
L 199.197257 483.801609 
z
" clip-path="url(#p67f646447a)" style="fill: #525252"/>
   </g>
   <g id="patch_4">
    <path d="M 397.736229 499.785874 
L 497.005714 499.785874 
L 497.005714 479.098594 
L 397.736229 479.098594 
z
" clip-path="url(#p67f646447a)" style="fill: #525252"/>
   </g>
   <g id="patch_5">
    <path d="M 596.2752 499.785874 
L 695.544686 499.785874 
L 695.544686 482.346303 
L 596.2752 482.346303 
z
" clip-path="url(#p67f646447a)" style="fill: #525252"/>
   </g>
   <g id="patch_6">
    <path d="M 794.814171 499.785874 
L 894.083657 499.785874 
L 894.083657 482.698694 
L 794.814171 482.698694 
z
" clip-path="url(#p67f646447a)" style="fill: #525252"/>
   </g>
   <g id="patch_7">
    <path d="M 199.197257 483.801609 
L 298.466743 483.801609 
L 298.466743 458.820211 
L 199.197257 458.820211 
z
" clip-path="url(#p67f646447a)" style="fill: #1f77b4"/>
   </g>
   <g id="patch_8">
    <path d="M 397.736229 479.098594 
L 497.005714 479.098594 
L 497.005714 455.366434 
L 397.736229 455.366434 
z
" clip-path="url(#p67f646447a)" style="fill: #1f77b4"/>
   </g>
   <g id="patch_9">
    <path d="M 596.2752 482.346303 
L 695.544686 482.346303 
L 695.544686 457.703432 
L 596.2752 457.703432 
z
" clip-path="url(#p67f646447a)" style="fill: #1f77b4"/>
   </g>
   <g id="patch_10">
    <path d="M 794.814171 482.698694 
L 894.083657 482.698694 
L 894.083657 458.059168 
L 794.814171 458.059168 
z
" clip-path="url(#p67f646447a)" style="fill: #1f77b4"/>
   </g>
   <g id="patch_11">
    <path d="M 199.197257 458.820211 
L 298.466743 458.820211 
L 298.466743 458.724497 
L 199.197257 458.724497 
z
" clip-path="url(#p67f646447a)" style="fill: #aec7e8"/>
   </g>
   <g id="patch_12">
    <path d="M 397.736229 455.366434 
L 497.005714 455.366434 
L 497.005714 455.276878 
L 397.736229 455.276878 
z
" clip-path="url(#p67f646447a)" style="fill: #aec7e8"/>
   </g>
   <g id="patch_13">
    <path d="M 596.2752 457.703432 
L 695.544686 457.703432 
L 695.544686 457.608651 
L 596.2752 457.608651 
z
" clip-path="url(#p67f646447a)" style="fill: #aec7e8"/>
   </g>
   <g id="patch_14">
    <path d="M 794.814171 458.059168 
L 894.083657 458.059168 
L 894.083657 457.964764 
L 794.814171 457.964764 
z
" clip-path="url(#p67f646447a)" style="fill: #aec7e8"/>
   </g>
   <g id="patch_15">
    <path d="M 199.197257 458.724497 
L 298.466743 458.724497 
L 298.466743 421.395972 
L 199.197257 421.395972 
z
" clip-path="url(#p67f646447a)" style="fill: #ff7f0e"/>
   </g>
   <g id="patch_16">
    <path d="M 397.736229 455.276878 
L 497.005714 455.276878 
L 497.005714 419.365193 
L 397.736229 419.365193 
z
" clip-path="url(#p67f646447a)" style="fill: #ff7f0e"/>
   </g>
   <g id="patch_17">
    <path d="M 596.2752 457.608651 
L 695.544686 457.608651 
L 695.544686 421.307806 
L 596.2752 421.307806 
z
" clip-path="url(#p67f646447a)" style="fill: #ff7f0e"/>
   </g>
   <g id="patch_18">
    <path d="M 794.814171 457.964764 
L 894.083657 457.964764 
L 894.083657 421.147081 
L 794.814171 421.147081 
z
" clip-path="url(#p67f646447a)" style="fill: #ff7f0e"/>
   </g>
   <g id="patch_19">
    <path d="M 199.197257 421.395972 
L 298.466743 421.395972 
L 298.466743 406.464563 
L 199.197257 406.464563 
z
" clip-path="url(#p67f646447a)" style="fill: #ffbb78"/>
   </g>
   <g id="patch_20">
    <path d="M 397.736229 419.365193 
L 497.005714 419.365193 
L 497.005714 404.230344 
L 397.736229 404.230344 
z
" clip-path="url(#p67f646447a)" style="fill: #ffbb78"/>
   </g>
   <g id="patch_21">
    <path d="M 596.2752 421.307806 
L 695.544686 421.307806 
L 695.544686 406.616863 
L 596.2752 406.616863 
z
" clip-path="url(#p67f646447a)" style="fill: #ffbb78"/>
   </g>
   <g id="patch_22">
    <path d="M 794.814171 421.147081 
L 894.083657 421.147081 
L 894.083657 406.514413 
L 794.814171 406.514413 
z
" clip-path="url(#p67f646447a)" style="fill: #ffbb78"/>
   </g>
   <g id="patch_23">
    <path d="M 199.197257 499.785874 
L 298.466743 499.785874 
L 298.466743 499.785874 
L 199.197257 499.785874 
z
" clip-path="url(#p67f646447a)" style="fill: #2ca02c"/>
   </g>
   <g id="patch_24">
    <path d="M 397.736229 499.785874 
L 497.005714 499.785874 
L 497.005714 499.785874 
L 397.736229 499.785874 
z
" clip-path="url(#p67f646447a)" style="fill: #2ca02c"/>
   </g>
   <g id="patch_25">
    <path d="M 596.2752 499.785874 
L 695.544686 499.785874 
L 695.544686 499.785874 
L 596.2752 499.785874 
z
" clip-path="url(#p67f646447a)" style="fill: #2ca02c"/>
   </g>
   <g id="patch_26">
    <path d="M 794.814171 499.785874 
L 894.083657 499.785874 
L 894.083657 499.785874 
L 794.814171 499.785874 
z
" clip-path="url(#p67f646447a)" style="fill: #2ca02c"/>
   </g>
   <g id="patch_27">
    <path d="M 199.197257 406.464563 
L 298.466743 406.464563 
L 298.466743 400.817427 
L 199.197257 400.817427 
z
" clip-path="url(#p67f646447a)" style="fill: #98df8a"/>
   </g>
   <g id="patch_28">
    <path d="M 397.736229 404.230344 
L 497.005714 404.230344 
L 497.005714 397.871916 
L 397.736229 397.871916 
z
" clip-path="url(#p67f646447a)" style="fill: #98df8a"/>
   </g>
   <g id="patch_29">
    <path d="M 596.2752 406.616863 
L 695.544686 406.616863 
L 695.544686 400.835266 
L 596.2752 400.835266 
z
" clip-path="url(#p67f646447a)" style="fill: #98df8a"/>
   </g>
   <g id="patch_30">
    <path d="M 794.814171 406.514413 
L 894.083657 406.514413 
L 894.083657 400.75575 
L 794.814171 400.75575 
z
" clip-path="url(#p67f646447a)" style="fill: #98df8a"/>
   </g>
   <g id="patch_31">
    <path d="M 199.197257 499.785874 
L 298.466743 499.785874 
L 298.466743 499.785874 
L 199.197257 499.785874 
z
" clip-path="url(#p67f646447a)" style="fill: #d62728"/>
   </g>
   <g id="patch_32">
    <path d="M 397.736229 499.785874 
L 497.005714 499.785874 
L 497.005714 499.785874 
L 397.736229 499.785874 
z
" clip-path="url(#p67f646447a)" style="fill: #d62728"/>
   </g>
   <g id="patch_33">
    <path d="M 596.2752 499.785874 
L 695.544686 499.785874 
L 695.544686 499.785874 
L 596.2752 499.785874 
z
" clip-path="url(#p67f646447a)" style="fill: #d62728"/>
   </g>
   <g id="patch_34">
    <path d="M 794.814171 499.785874 
L 894.083657 499.785874 
L 894.083657 499.785874 
L 794.814171 499.785874 
z
" clip-path="url(#p67f646447a)" style="fill: #d62728"/>
   </g>
   <g id="patch_35">
    <path d="M 199.197257 400.817427 
L 298.466743 400.817427 
L 298.466743 391.054582 
L 199.197257 391.054582 
z
" clip-path="url(#p67f646447a)" style="fill: #ff9896"/>
   </g>
   <g id="patch_36">
    <path d="M 397.736229 397.871916 
L 497.005714 397.871916 
L 497.005714 388.110385 
L 397.736229 388.110385 
z
" clip-path="url(#p67f646447a)" style="fill: #ff9896"/>
   </g>
   <g id="patch_37">
    <path d="M 596.2752 400.835266 
L 695.544686 400.835266 
L 695.544686 390.978117 
L 596.2752 390.978117 
z
" clip-path="url(#p67f646447a)" style="fill: #ff9896"/>
   </g>
   <g id="patch_38">
    <path d="M 794.814171 400.75575 
L 894.083657 400.75575 
L 894.083657 390.182467 
L 794.814171 390.182467 
z
" clip-path="url(#p67f646447a)" style="fill: #ff9896"/>
   </g>
   <g id="patch_39">
    <path d="M 199.197257 391.054582 
L 298.466743 391.054582 
L 298.466743 358.990336 
L 199.197257 358.990336 
z
" clip-path="url(#p67f646447a)" style="fill: #9467bd"/>
   </g>
   <g id="patch_40">
    <path d="M 397.736229 388.110385 
L 497.005714 388.110385 
L 497.005714 357.840686 
L 397.736229 357.840686 
z
" clip-path="url(#p67f646447a)" style="fill: #9467bd"/>
   </g>
   <g id="patch_41">
    <path d="M 596.2752 390.978117 
L 695.544686 390.978117 
L 695.544686 359.700626 
L 596.2752 359.700626 
z
" clip-path="url(#p67f646447a)" style="fill: #9467bd"/>
   </g>
   <g id="patch_42">
    <path d="M 794.814171 390.182467 
L 894.083657 390.182467 
L 894.083657 358.840235 
L 794.814171 358.840235 
z
" clip-path="url(#p67f646447a)" style="fill: #9467bd"/>
   </g>
   <g id="patch_43">
    <path d="M 199.197257 358.990336 
L 298.466743 358.990336 
L 298.466743 329.318945 
L 199.197257 329.318945 
z
" clip-path="url(#p67f646447a)" style="fill: #c5b0d5"/>
   </g>
   <g id="patch_44">
    <path d="M 397.736229 357.840686 
L 497.005714 357.840686 
L 497.005714 328.108318 
L 397.736229 328.108318 
z
" clip-path="url(#p67f646447a)" style="fill: #c5b0d5"/>
   </g>
   <g id="patch_45">
    <path d="M 596.2752 359.700626 
L 695.544686 359.700626 
L 695.544686 330.22396 
L 596.2752 330.22396 
z
" clip-path="url(#p67f646447a)" style="fill: #c5b0d5"/>
   </g>
   <g id="patch_46">
    <path d="M 794.814171 358.840235 
L 894.083657 358.840235 
L 894.083657 329.386089 
L 794.814171 329.386089 
z
" clip-path="url(#p67f646447a)" style="fill: #c5b0d5"/>
   </g>
   <g id="patch_47">
    <path d="M 199.197257 329.318945 
L 298.466743 329.318945 
L 298.466743 294.000418 
L 199.197257 294.000418 
z
" clip-path="url(#p67f646447a)" style="fill: #8c564b"/>
   </g>
   <g id="patch_48">
    <path d="M 397.736229 328.108318 
L 497.005714 328.108318 
L 497.005714 288.703976 
L 397.736229 288.703976 
z
" clip-path="url(#p67f646447a)" style="fill: #8c564b"/>
   </g>
   <g id="patch_49">
    <path d="M 596.2752 330.22396 
L 695.544686 330.22396 
L 695.544686 292.596191 
L 596.2752 292.596191 
z
" clip-path="url(#p67f646447a)" style="fill: #8c564b"/>
   </g>
   <g id="patch_50">
    <path d="M 794.814171 329.386089 
L 894.083657 329.386089 
L 894.083657 292.379598 
L 794.814171 292.379598 
z
" clip-path="url(#p67f646447a)" style="fill: #8c564b"/>
   </g>
   <g id="patch_51">
    <path d="M 199.197257 499.785874 
L 298.466743 499.785874 
L 298.466743 499.785874 
L 199.197257 499.785874 
z
" clip-path="url(#p67f646447a)" style="fill: #c49c94"/>
   </g>
   <g id="patch_52">
    <path d="M 397.736229 499.785874 
L 497.005714 499.785874 
L 497.005714 499.785874 
L 397.736229 499.785874 
z
" clip-path="url(#p67f646447a)" style="fill: #c49c94"/>
   </g>
   <g id="patch_53">
    <path d="M 596.2752 499.785874 
L 695.544686 499.785874 
L 695.544686 499.785874 
L 596.2752 499.785874 
z
" clip-path="url(#p67f646447a)" style="fill: #c49c94"/>
   </g>
   <g id="patch_54">
    <path d="M 794.814171 499.785874 
L 894.083657 499.785874 
L 894.083657 499.785874 
L 794.814171 499.785874 
z
" clip-path="url(#p67f646447a)" style="fill: #c49c94"/>
   </g>
   <g id="patch_55">
    <path d="M 199.197257 294.000418 
L 298.466743 294.000418 
L 298.466743 293.808989 
L 199.197257 293.808989 
z
" clip-path="url(#p67f646447a)" style="fill: #e377c2"/>
   </g>
   <g id="patch_56">
    <path d="M 397.736229 288.703976 
L 497.005714 288.703976 
L 497.005714 288.524865 
L 397.736229 288.524865 
z
" clip-path="url(#p67f646447a)" style="fill: #e377c2"/>
   </g>
   <g id="patch_57">
    <path d="M 596.2752 292.596191 
L 695.544686 292.596191 
L 695.544686 292.40663 
L 596.2752 292.40663 
z
" clip-path="url(#p67f646447a)" style="fill: #e377c2"/>
   </g>
   <g id="patch_58">
    <path d="M 794.814171 292.379598 
L 894.083657 292.379598 
L 894.083657 292.19079 
L 794.814171 292.19079 
z
" clip-path="url(#p67f646447a)" style="fill: #e377c2"/>
   </g>
   <g id="patch_59">
    <path d="M 199.197257 293.808989 
L 298.466743 293.808989 
L 298.466743 284.907572 
L 199.197257 284.907572 
z
" clip-path="url(#p67f646447a)" style="fill: #f7b6d2"/>
   </g>
   <g id="patch_60">
    <path d="M 397.736229 288.524865 
L 497.005714 288.524865 
L 497.005714 280.017109 
L 397.736229 280.017109 
z
" clip-path="url(#p67f646447a)" style="fill: #f7b6d2"/>
   </g>
   <g id="patch_61">
    <path d="M 596.2752 292.40663 
L 695.544686 292.40663 
L 695.544686 283.307724 
L 596.2752 283.307724 
z
" clip-path="url(#p67f646447a)" style="fill: #f7b6d2"/>
   </g>
   <g id="patch_62">
    <path d="M 794.814171 292.19079 
L 894.083657 292.19079 
L 894.083657 283.316784 
L 794.814171 283.316784 
z
" clip-path="url(#p67f646447a)" style="fill: #f7b6d2"/>
   </g>
   <g id="patch_63">
    <path d="M 199.197257 284.907572 
L 298.466743 284.907572 
L 298.466743 268.349021 
L 199.197257 268.349021 
z
" clip-path="url(#p67f646447a)" style="fill: #7f7f7f"/>
   </g>
   <g id="patch_64">
    <path d="M 397.736229 280.017109 
L 497.005714 280.017109 
L 497.005714 263.71804 
L 397.736229 263.71804 
z
" clip-path="url(#p67f646447a)" style="fill: #7f7f7f"/>
   </g>
   <g id="patch_65">
    <path d="M 596.2752 283.307724 
L 695.544686 283.307724 
L 695.544686 266.721175 
L 596.2752 266.721175 
z
" clip-path="url(#p67f646447a)" style="fill: #7f7f7f"/>
   </g>
   <g id="patch_66">
    <path d="M 794.814171 283.316784 
L 894.083657 283.316784 
L 894.083657 266.418412 
L 794.814171 266.418412 
z
" clip-path="url(#p67f646447a)" style="fill: #7f7f7f"/>
   </g>
   <g id="patch_67">
    <path d="M 199.197257 268.349021 
L 298.466743 268.349021 
L 298.466743 264.999025 
L 199.197257 264.999025 
z
" clip-path="url(#p67f646447a)" style="fill: #c7c7c7"/>
   </g>
   <g id="patch_68">
    <path d="M 397.736229 263.71804 
L 497.005714 263.71804 
L 497.005714 258.792497 
L 397.736229 258.792497 
z
" clip-path="url(#p67f646447a)" style="fill: #c7c7c7"/>
   </g>
   <g id="patch_69">
    <path d="M 596.2752 266.721175 
L 695.544686 266.721175 
L 695.544686 263.024744 
L 596.2752 263.024744 
z
" clip-path="url(#p67f646447a)" style="fill: #c7c7c7"/>
   </g>
   <g id="patch_70">
    <path d="M 794.814171 266.418412 
L 894.083657 266.418412 
L 894.083657 261.509388 
L 794.814171 261.509388 
z
" clip-path="url(#p67f646447a)" style="fill: #c7c7c7"/>
   </g>
   <g id="patch_71">
    <path d="M 199.197257 264.999025 
L 298.466743 264.999025 
L 298.466743 242.314768 
L 199.197257 242.314768 
z
" clip-path="url(#p67f646447a)" style="fill: #bcbd22"/>
   </g>
   <g id="patch_72">
    <path d="M 397.736229 258.792497 
L 497.005714 258.792497 
L 497.005714 237.388775 
L 397.736229 237.388775 
z
" clip-path="url(#p67f646447a)" style="fill: #bcbd22"/>
   </g>
   <g id="patch_73">
    <path d="M 596.2752 263.024744 
L 695.544686 263.024744 
L 695.544686 240.75138 
L 596.2752 240.75138 
z
" clip-path="url(#p67f646447a)" style="fill: #bcbd22"/>
   </g>
   <g id="patch_74">
    <path d="M 794.814171 261.509388 
L 894.083657 261.509388 
L 894.083657 239.418779 
L 794.814171 239.418779 
z
" clip-path="url(#p67f646447a)" style="fill: #bcbd22"/>
   </g>
   <g id="patch_75">
    <path d="M 199.197257 242.314768 
L 298.466743 242.314768 
L 298.466743 213.791947 
L 199.197257 213.791947 
z
" clip-path="url(#p67f646447a)" style="fill: #dbdb8d"/>
   </g>
   <g id="patch_76">
    <path d="M 397.736229 237.388775 
L 497.005714 237.388775 
L 497.005714 209.626625 
L 397.736229 209.626625 
z
" clip-path="url(#p67f646447a)" style="fill: #dbdb8d"/>
   </g>
   <g id="patch_77">
    <path d="M 596.2752 240.75138 
L 695.544686 240.75138 
L 695.544686 212.696418 
L 596.2752 212.696418 
z
" clip-path="url(#p67f646447a)" style="fill: #dbdb8d"/>
   </g>
   <g id="patch_78">
    <path d="M 794.814171 239.418779 
L 894.083657 239.418779 
L 894.083657 211.286293 
L 794.814171 211.286293 
z
" clip-path="url(#p67f646447a)" style="fill: #dbdb8d"/>
   </g>
   <g id="patch_79">
    <path d="M 199.197257 213.791947 
L 298.466743 213.791947 
L 298.466743 172.730569 
L 199.197257 172.730569 
z
" clip-path="url(#p67f646447a)" style="fill: #17becf"/>
   </g>
   <g id="patch_80">
    <path d="M 397.736229 209.626625 
L 497.005714 209.626625 
L 497.005714 170.580503 
L 397.736229 170.580503 
z
" clip-path="url(#p67f646447a)" style="fill: #17becf"/>
   </g>
   <g id="patch_81">
    <path d="M 596.2752 212.696418 
L 695.544686 212.696418 
L 695.544686 172.13046 
L 596.2752 172.13046 
z
" clip-path="url(#p67f646447a)" style="fill: #17becf"/>
   </g>
   <g id="patch_82">
    <path d="M 794.814171 211.286293 
L 894.083657 211.286293 
L 894.083657 170.692439 
L 794.814171 170.692439 
z
" clip-path="url(#p67f646447a)" style="fill: #17becf"/>
   </g>
   <g id="patch_83">
    <path d="M 199.197257 172.730569 
L 298.466743 172.730569 
L 298.466743 163.54201 
L 199.197257 163.54201 
z
" clip-path="url(#p67f646447a)" style="fill: #9edae5"/>
   </g>
   <g id="patch_84">
    <path d="M 397.736229 170.580503 
L 497.005714 170.580503 
L 497.005714 161.804082 
L 397.736229 161.804082 
z
" clip-path="url(#p67f646447a)" style="fill: #9edae5"/>
   </g>
   <g id="patch_85">
    <path d="M 596.2752 172.13046 
L 695.544686 172.13046 
L 695.544686 163.031553 
L 596.2752 163.031553 
z
" clip-path="url(#p67f646447a)" style="fill: #9edae5"/>
   </g>
   <g id="patch_86">
    <path d="M 794.814171 170.692439 
L 894.083657 170.692439 
L 894.083657 161.53522 
L 794.814171 161.53522 
z
" clip-path="url(#p67f646447a)" style="fill: #9edae5"/>
   </g>
   <g id="patch_87">
    <path d="M 199.197257 163.54201 
L 298.466743 163.54201 
L 298.466743 143.824891 
L 199.197257 143.824891 
z
" clip-path="url(#p67f646447a)" style="fill: #ffd131"/>
   </g>
   <g id="patch_88">
    <path d="M 397.736229 161.804082 
L 497.005714 161.804082 
L 497.005714 142.549687 
L 397.736229 142.549687 
z
" clip-path="url(#p67f646447a)" style="fill: #ffd131"/>
   </g>
   <g id="patch_89">
    <path d="M 596.2752 163.031553 
L 695.544686 163.031553 
L 695.544686 143.696377 
L 596.2752 143.696377 
z
" clip-path="url(#p67f646447a)" style="fill: #ffd131"/>
   </g>
   <g id="patch_90">
    <path d="M 794.814171 161.53522 
L 894.083657 161.53522 
L 894.083657 142.087932 
L 794.814171 142.087932 
z
" clip-path="url(#p67f646447a)" style="fill: #ffd131"/>
   </g>
   <g id="patch_91">
    <path d="M 199.197257 143.824891 
L 298.466743 143.824891 
L 298.466743 120.662063 
L 199.197257 120.662063 
z
" clip-path="url(#p67f646447a)" style="fill: #f4ac32"/>
   </g>
   <g id="patch_92">
    <path d="M 397.736229 142.549687 
L 497.005714 142.549687 
L 497.005714 120.071301 
L 397.736229 120.071301 
z
" clip-path="url(#p67f646447a)" style="fill: #f4ac32"/>
   </g>
   <g id="patch_93">
    <path d="M 596.2752 143.696377 
L 695.544686 143.696377 
L 695.544686 120.75955 
L 596.2752 120.75955 
z
" clip-path="url(#p67f646447a)" style="fill: #f4ac32"/>
   </g>
   <g id="patch_94">
    <path d="M 794.814171 142.087932 
L 894.083657 142.087932 
L 894.083657 119.619705 
L 794.814171 119.619705 
z
" clip-path="url(#p67f646447a)" style="fill: #f4ac32"/>
   </g>
   <g id="patch_95">
    <path d="M 199.197257 120.662063 
L 298.466743 120.662063 
L 298.466743 97.212093 
L 199.197257 97.212093 
z
" clip-path="url(#p67f646447a)" style="fill: #dbb3b1"/>
   </g>
   <g id="patch_96">
    <path d="M 397.736229 120.071301 
L 497.005714 120.071301 
L 497.005714 97.503359 
L 397.736229 97.503359 
z
" clip-path="url(#p67f646447a)" style="fill: #dbb3b1"/>
   </g>
   <g id="patch_97">
    <path d="M 596.2752 120.75955 
L 695.544686 120.75955 
L 695.544686 97.254041 
L 596.2752 97.254041 
z
" clip-path="url(#p67f646447a)" style="fill: #dbb3b1"/>
   </g>
   <g id="patch_98">
    <path d="M 794.814171 119.619705 
L 894.083657 119.619705 
L 894.083657 96.490648 
L 794.814171 96.490648 
z
" clip-path="url(#p67f646447a)" style="fill: #dbb3b1"/>
   </g>
   <g id="patch_99">
    <path d="M 199.197257 97.212093 
L 298.466743 97.212093 
L 298.466743 88.693532 
L 199.197257 88.693532 
z
" clip-path="url(#p67f646447a)" style="fill: #a5be00"/>
   </g>
   <g id="patch_100">
    <path d="M 397.736229 97.503359 
L 497.005714 97.503359 
L 497.005714 88.906048 
L 397.736229 88.906048 
z
" clip-path="url(#p67f646447a)" style="fill: #a5be00"/>
   </g>
   <g id="patch_101">
    <path d="M 596.2752 97.254041 
L 695.544686 97.254041 
L 695.544686 88.818597 
L 596.2752 88.818597 
z
" clip-path="url(#p67f646447a)" style="fill: #a5be00"/>
   </g>
   <g id="patch_102">
    <path d="M 794.814171 96.490648 
L 894.083657 96.490648 
L 894.083657 88.277473 
L 794.814171 88.277473 
z
" clip-path="url(#p67f646447a)" style="fill: #a5be00"/>
   </g>
   <g id="patch_103">
    <path d="M 199.197257 88.693532 
L 298.466743 88.693532 
L 298.466743 63.999277 
L 199.197257 63.999277 
z
" clip-path="url(#p67f646447a)" style="fill: #3d52d5"/>
   </g>
   <g id="patch_104">
    <path d="M 397.736229 88.906048 
L 497.005714 88.906048 
L 497.005714 64.278334 
L 397.736229 64.278334 
z
" clip-path="url(#p67f646447a)" style="fill: #3d52d5"/>
   </g>
   <g id="patch_105">
    <path d="M 596.2752 88.818597 
L 695.544686 88.818597 
L 695.544686 64.365286 
L 596.2752 64.365286 
z
" clip-path="url(#p67f646447a)" style="fill: #3d52d5"/>
   </g>
   <g id="patch_106">
    <path d="M 794.814171 88.277473 
L 894.083657 88.277473 
L 894.083657 63.92116 
L 794.814171 63.92116 
z
" clip-path="url(#p67f646447a)" style="fill: #3d52d5"/>
   </g>
   <g id="patch_107">
    <path d="M 199.197257 63.999277 
L 298.466743 63.999277 
L 298.466743 23.799327 
L 199.197257 23.799327 
z
" clip-path="url(#p67f646447a)" style="fill: #ffeedd"/>
   </g>
   <g id="patch_108">
    <path d="M 397.736229 64.278334 
L 497.005714 64.278334 
L 497.005714 23.799327 
L 397.736229 23.799327 
z
" clip-path="url(#p67f646447a)" style="fill: #ffeedd"/>
   </g>
   <g id="patch_109">
    <path d="M 596.2752 64.365286 
L 695.544686 64.365286 
L 695.544686 23.799327 
L 596.2752 23.799327 
z
" clip-path="url(#p67f646447a)" style="fill: #ffeedd"/>
   </g>
   <g id="patch_110">
    <path d="M 794.814171 63.92116 
L 894.083657 63.92116 
L 894.083657 23.799327 
L 794.814171 23.799327 
z
" clip-path="url(#p67f646447a)" style="fill: #ffeedd"/>
   </g>
   <g id="matplotlib.axis_1">
    <g id="xtick_1">
     <g id="line2d_1">
      <defs>
       <path id="m0dc0c4fb71" d="M 0 0 
L 0 3.5 
" style="stroke: #000000; stroke-width: 0.8"/>
      </defs>
      <g>
       <use xlink:href="#m0dc0c4fb71" x="248.832" y="499.785874" style="stroke: #000000; stroke-width: 0.8"/>
      </g>
     </g>
     <g id="text_1">
      <!-- Pseudomonas -->
      <g transform="translate(186.073875 520.463062)scale(0.18 -0.18)">
       <defs>
        <path id="DejaVuSans-Oblique-50" d="M 1081 4666 
L 2541 4666 
Q 3178 4666 3512 4369 
Q 3847 4072 3847 3500 
Q 3847 2731 3353 2303 
Q 2859 1875 1966 1875 
L 1172 1875 
L 806 0 
L 172 0 
L 1081 4666 
z
M 1613 4147 
L 1275 2394 
L 2069 2394 
Q 2606 2394 2893 2669 
Q 3181 2944 3181 3456 
Q 3181 3784 2986 3965 
Q 2791 4147 2438 4147 
L 1613 4147 
z
" transform="scale(0.015625)"/>
        <path id="DejaVuSans-Oblique-73" d="M 3200 3397 
L 3091 2853 
Q 2863 2978 2609 3040 
Q 2356 3103 2088 3103 
Q 1634 3103 1373 2948 
Q 1113 2794 1113 2528 
Q 1113 2219 1719 2053 
Q 1766 2041 1788 2034 
L 1972 1978 
Q 2547 1819 2739 1644 
Q 2931 1469 2931 1166 
Q 2931 609 2489 259 
Q 2047 -91 1331 -91 
Q 1053 -91 747 -37 
Q 441 16 72 128 
L 184 722 
Q 500 559 806 475 
Q 1113 391 1394 391 
Q 1816 391 2080 572 
Q 2344 753 2344 1031 
Q 2344 1331 1650 1516 
L 1591 1531 
L 1394 1581 
Q 956 1697 753 1886 
Q 550 2075 550 2369 
Q 550 2928 970 3256 
Q 1391 3584 2113 3584 
Q 2397 3584 2667 3537 
Q 2938 3491 3200 3397 
z
" transform="scale(0.015625)"/>
        <path id="DejaVuSans-Oblique-65" d="M 3078 2063 
Q 3088 2113 3092 2166 
Q 3097 2219 3097 2272 
Q 3097 2653 2873 2875 
Q 2650 3097 2266 3097 
Q 1838 3097 1509 2826 
Q 1181 2556 1013 2059 
L 3078 2063 
z
M 3578 1613 
L 903 1613 
Q 884 1494 878 1425 
Q 872 1356 872 1306 
Q 872 872 1139 634 
Q 1406 397 1894 397 
Q 2269 397 2603 481 
Q 2938 566 3225 728 
L 3116 159 
Q 2806 34 2476 -28 
Q 2147 -91 1806 -91 
Q 1078 -91 686 257 
Q 294 606 294 1247 
Q 294 1794 489 2264 
Q 684 2734 1063 3103 
Q 1306 3334 1642 3459 
Q 1978 3584 2356 3584 
Q 2950 3584 3301 3228 
Q 3653 2872 3653 2272 
Q 3653 2128 3634 1964 
Q 3616 1800 3578 1613 
z
" transform="scale(0.015625)"/>
        <path id="DejaVuSans-Oblique-75" d="M 428 1388 
L 838 3500 
L 1416 3500 
L 1006 1409 
Q 975 1256 961 1147 
Q 947 1038 947 966 
Q 947 700 1109 554 
Q 1272 409 1569 409 
Q 2031 409 2368 721 
Q 2706 1034 2809 1563 
L 3194 3500 
L 3769 3500 
L 3091 0 
L 2516 0 
L 2631 550 
Q 2388 244 2052 76 
Q 1716 -91 1338 -91 
Q 878 -91 622 161 
Q 366 413 366 863 
Q 366 956 381 1097 
Q 397 1238 428 1388 
z
" transform="scale(0.015625)"/>
        <path id="DejaVuSans-Oblique-64" d="M 2675 525 
Q 2444 222 2128 65 
Q 1813 -91 1428 -91 
Q 903 -91 598 267 
Q 294 625 294 1247 
Q 294 1766 478 2236 
Q 663 2706 1013 3078 
Q 1244 3325 1534 3454 
Q 1825 3584 2144 3584 
Q 2481 3584 2739 3421 
Q 2997 3259 3138 2956 
L 3513 4863 
L 4091 4863 
L 3144 0 
L 2566 0 
L 2675 525 
z
M 891 1350 
Q 891 897 1095 644 
Q 1300 391 1663 391 
Q 1931 391 2161 520 
Q 2391 650 2566 903 
Q 2750 1166 2856 1509 
Q 2963 1853 2963 2188 
Q 2963 2622 2758 2865 
Q 2553 3109 2194 3109 
Q 1922 3109 1687 2981 
Q 1453 2853 1288 2613 
Q 1106 2353 998 2009 
Q 891 1666 891 1350 
z
" transform="scale(0.015625)"/>
        <path id="DejaVuSans-Oblique-6f" d="M 1625 -91 
Q 1009 -91 651 289 
Q 294 669 294 1325 
Q 294 1706 417 2101 
Q 541 2497 738 2766 
Q 1047 3184 1428 3384 
Q 1809 3584 2291 3584 
Q 2888 3584 3255 3212 
Q 3622 2841 3622 2241 
Q 3622 1825 3500 1412 
Q 3378 1000 3181 728 
Q 2875 309 2494 109 
Q 2113 -91 1625 -91 
z
M 891 1344 
Q 891 869 1089 633 
Q 1288 397 1691 397 
Q 2269 397 2648 901 
Q 3028 1406 3028 2181 
Q 3028 2634 2825 2865 
Q 2622 3097 2228 3097 
Q 1903 3097 1650 2945 
Q 1397 2794 1197 2484 
Q 1050 2253 970 1956 
Q 891 1659 891 1344 
z
" transform="scale(0.015625)"/>
        <path id="DejaVuSans-Oblique-6d" d="M 5747 2113 
L 5338 0 
L 4763 0 
L 5166 2094 
Q 5191 2228 5203 2325 
Q 5216 2422 5216 2491 
Q 5216 2772 5059 2928 
Q 4903 3084 4622 3084 
Q 4203 3084 3875 2770 
Q 3547 2456 3450 1953 
L 3066 0 
L 2491 0 
L 2900 2094 
Q 2925 2209 2937 2307 
Q 2950 2406 2950 2484 
Q 2950 2769 2794 2926 
Q 2638 3084 2363 3084 
Q 1938 3084 1609 2770 
Q 1281 2456 1184 1953 
L 800 0 
L 225 0 
L 909 3500 
L 1484 3500 
L 1375 2956 
Q 1609 3263 1923 3423 
Q 2238 3584 2597 3584 
Q 2978 3584 3223 3384 
Q 3469 3184 3519 2828 
Q 3781 3197 4126 3390 
Q 4472 3584 4856 3584 
Q 5306 3584 5551 3325 
Q 5797 3066 5797 2591 
Q 5797 2488 5784 2364 
Q 5772 2241 5747 2113 
z
" transform="scale(0.015625)"/>
        <path id="DejaVuSans-Oblique-6e" d="M 3566 2113 
L 3156 0 
L 2578 0 
L 2988 2091 
Q 3016 2238 3031 2350 
Q 3047 2463 3047 2528 
Q 3047 2791 2881 2937 
Q 2716 3084 2419 3084 
Q 1956 3084 1622 2776 
Q 1288 2469 1184 1941 
L 800 0 
L 225 0 
L 903 3500 
L 1478 3500 
L 1363 2950 
Q 1603 3253 1940 3418 
Q 2278 3584 2650 3584 
Q 3113 3584 3367 3334 
Q 3622 3084 3622 2631 
Q 3622 2519 3608 2391 
Q 3594 2263 3566 2113 
z
" transform="scale(0.015625)"/>
        <path id="DejaVuSans-Oblique-61" d="M 3438 1997 
L 3047 0 
L 2472 0 
L 2578 531 
Q 2325 219 2001 64 
Q 1678 -91 1281 -91 
Q 834 -91 548 182 
Q 263 456 263 884 
Q 263 1497 752 1853 
Q 1241 2209 2100 2209 
L 2900 2209 
L 2931 2363 
Q 2938 2388 2941 2417 
Q 2944 2447 2944 2509 
Q 2944 2788 2717 2942 
Q 2491 3097 2081 3097 
Q 1800 3097 1504 3025 
Q 1209 2953 897 2809 
L 997 3341 
Q 1322 3463 1633 3523 
Q 1944 3584 2234 3584 
Q 2853 3584 3176 3315 
Q 3500 3047 3500 2534 
Q 3500 2431 3484 2292 
Q 3469 2153 3438 1997 
z
M 2816 1759 
L 2241 1759 
Q 1534 1759 1195 1570 
Q 856 1381 856 984 
Q 856 709 1029 553 
Q 1203 397 1509 397 
Q 1978 397 2328 733 
Q 2678 1069 2791 1631 
L 2816 1759 
z
" transform="scale(0.015625)"/>
       </defs>
       <use xlink:href="#DejaVuSans-Oblique-50"/>
       <use xlink:href="#DejaVuSans-Oblique-73" x="60.302734"/>
       <use xlink:href="#DejaVuSans-Oblique-65" x="112.402344"/>
       <use xlink:href="#DejaVuSans-Oblique-75" x="173.925781"/>
       <use xlink:href="#DejaVuSans-Oblique-64" x="237.304688"/>
       <use xlink:href="#DejaVuSans-Oblique-6f" x="300.78125"/>
       <use xlink:href="#DejaVuSans-Oblique-6d" x="361.962891"/>
       <use xlink:href="#DejaVuSans-Oblique-6f" x="459.375"/>
       <use xlink:href="#DejaVuSans-Oblique-6e" x="520.556641"/>
       <use xlink:href="#DejaVuSans-Oblique-61" x="583.935547"/>
       <use xlink:href="#DejaVuSans-Oblique-73" x="645.214844"/>
      </g>
      <!--  sp. P2498 -->
      <g transform="translate(201.517313 540.619124)scale(0.18 -0.18)">
       <defs>
        <path id="DejaVuSans-Oblique-20" transform="scale(0.015625)"/>
        <path id="DejaVuSans-Oblique-70" d="M 3175 2156 
Q 3175 2616 2975 2859 
Q 2775 3103 2400 3103 
Q 2144 3103 1911 2972 
Q 1678 2841 1497 2591 
Q 1319 2344 1212 1994 
Q 1106 1644 1106 1300 
Q 1106 863 1306 627 
Q 1506 391 1875 391 
Q 2147 391 2380 519 
Q 2613 647 2778 891 
Q 2956 1147 3065 1494 
Q 3175 1841 3175 2156 
z
M 1394 2969 
Q 1625 3272 1939 3428 
Q 2253 3584 2638 3584 
Q 3175 3584 3472 3232 
Q 3769 2881 3769 2247 
Q 3769 1728 3584 1258 
Q 3400 788 3053 416 
Q 2822 169 2531 39 
Q 2241 -91 1919 -91 
Q 1547 -91 1294 64 
Q 1041 219 916 525 
L 556 -1331 
L -19 -1331 
L 922 3500 
L 1497 3500 
L 1394 2969 
z
" transform="scale(0.015625)"/>
        <path id="DejaVuSans-Oblique-2e" d="M 525 794 
L 1184 794 
L 1031 0 
L 372 0 
L 525 794 
z
" transform="scale(0.015625)"/>
        <path id="DejaVuSans-Oblique-32" d="M 2950 2253 
L 934 525 
L 3163 525 
L 3053 0 
L 25 0 
L 128 531 
L 2234 2338 
Q 2656 2703 2832 2979 
Q 3009 3256 3009 3547 
Q 3009 3850 2796 4040 
Q 2584 4231 2241 4231 
Q 1944 4231 1581 4125 
Q 1219 4019 806 3816 
L 922 4441 
Q 1309 4594 1662 4672 
Q 2016 4750 2316 4750 
Q 2928 4750 3301 4425 
Q 3675 4100 3675 3572 
Q 3675 3216 3497 2892 
Q 3319 2569 2950 2253 
z
" transform="scale(0.015625)"/>
        <path id="DejaVuSans-Oblique-34" d="M 2753 4666 
L 3547 4666 
L 2950 1625 
L 3616 1625 
L 3513 1100 
L 2847 1100 
L 2638 0 
L 2009 0 
L 2222 1100 
L 116 1100 
L 238 1709 
L 2753 4666 
z
M 2809 4116 
L 728 1625 
L 2322 1625 
L 2809 4116 
z
" transform="scale(0.015625)"/>
        <path id="DejaVuSans-Oblique-39" d="M 281 103 
L 397 678 
Q 578 559 809 496 
Q 1041 434 1306 434 
Q 1953 434 2348 843 
Q 2744 1253 2938 2119 
Q 2706 1853 2401 1714 
Q 2097 1575 1747 1575 
Q 1178 1575 842 1904 
Q 506 2234 506 2791 
Q 506 3247 672 3639 
Q 838 4031 1159 4325 
Q 1378 4531 1665 4640 
Q 1953 4750 2278 4750 
Q 2925 4750 3300 4339 
Q 3675 3928 3675 3219 
Q 3675 2559 3501 1943 
Q 3328 1328 3022 878 
Q 2697 403 2240 156 
Q 1784 -91 1228 -91 
Q 988 -91 748 -42 
Q 509 6 281 103 
z
M 1131 2938 
Q 1131 2541 1337 2308 
Q 1544 2075 1894 2075 
Q 2378 2075 2706 2447 
Q 3034 2819 3034 3372 
Q 3034 3784 2831 4017 
Q 2628 4250 2272 4250 
Q 1788 4250 1459 3870 
Q 1131 3491 1131 2938 
z
" transform="scale(0.015625)"/>
        <path id="DejaVuSans-Oblique-38" d="M 2847 1416 
Q 2847 1769 2600 1992 
Q 2353 2216 1953 2216 
Q 1466 2216 1148 1923 
Q 831 1631 831 1184 
Q 831 828 1073 618 
Q 1316 409 1728 409 
Q 2219 409 2533 693 
Q 2847 978 2847 1416 
z
M 3169 3591 
Q 3169 3888 2950 4069 
Q 2731 4250 2369 4250 
Q 1941 4250 1664 4009 
Q 1388 3769 1388 3406 
Q 1388 3094 1605 2903 
Q 1822 2713 2181 2713 
Q 2613 2713 2891 2961 
Q 3169 3209 3169 3591 
z
M 2741 2456 
Q 3094 2322 3281 2050 
Q 3469 1778 3469 1394 
Q 3469 747 2969 328 
Q 2469 -91 1678 -91 
Q 1006 -91 609 239 
Q 213 569 213 1119 
Q 213 1619 553 2008 
Q 894 2397 1441 2503 
Q 1113 2616 941 2852 
Q 769 3088 769 3425 
Q 769 3991 1239 4370 
Q 1709 4750 2431 4750 
Q 3034 4750 3414 4442 
Q 3794 4134 3794 3659 
Q 3794 3247 3511 2923 
Q 3228 2600 2741 2456 
z
" transform="scale(0.015625)"/>
       </defs>
       <use xlink:href="#DejaVuSans-Oblique-20"/>
       <use xlink:href="#DejaVuSans-Oblique-73" x="31.787109"/>
       <use xlink:href="#DejaVuSans-Oblique-70" x="83.886719"/>
       <use xlink:href="#DejaVuSans-Oblique-2e" x="147.363281"/>
       <use xlink:href="#DejaVuSans-Oblique-20" x="179.150391"/>
       <use xlink:href="#DejaVuSans-Oblique-50" x="210.9375"/>
       <use xlink:href="#DejaVuSans-Oblique-32" x="271.240234"/>
       <use xlink:href="#DejaVuSans-Oblique-34" x="334.863281"/>
       <use xlink:href="#DejaVuSans-Oblique-39" x="398.486328"/>
       <use xlink:href="#DejaVuSans-Oblique-38" x="462.109375"/>
      </g>
     </g>
    </g>
    <g id="xtick_2">
     <g id="line2d_2">
      <g>
       <use xlink:href="#m0dc0c4fb71" x="447.370971" y="499.785874" style="stroke: #000000; stroke-width: 0.8"/>
      </g>
     </g>
     <g id="text_2">
      <!-- Pseudomonas -->
      <g transform="translate(384.612846 520.463062)scale(0.18 -0.18)">
       <use xlink:href="#DejaVuSans-Oblique-50"/>
       <use xlink:href="#DejaVuSans-Oblique-73" x="60.302734"/>
       <use xlink:href="#DejaVuSans-Oblique-65" x="112.402344"/>
       <use xlink:href="#DejaVuSans-Oblique-75" x="173.925781"/>
       <use xlink:href="#DejaVuSans-Oblique-64" x="237.304688"/>
       <use xlink:href="#DejaVuSans-Oblique-6f" x="300.78125"/>
       <use xlink:href="#DejaVuSans-Oblique-6d" x="361.962891"/>
       <use xlink:href="#DejaVuSans-Oblique-6f" x="459.375"/>
       <use xlink:href="#DejaVuSans-Oblique-6e" x="520.556641"/>
       <use xlink:href="#DejaVuSans-Oblique-61" x="583.935547"/>
       <use xlink:href="#DejaVuSans-Oblique-73" x="645.214844"/>
      </g>
      <!--  sp. P2647 -->
      <g transform="translate(400.056284 540.619124)scale(0.18 -0.18)">
       <defs>
        <path id="DejaVuSans-Oblique-36" d="M 2938 1728 
Q 2938 2125 2734 2354 
Q 2531 2584 2181 2584 
Q 1697 2584 1367 2211 
Q 1038 1838 1038 1288 
Q 1038 875 1239 642 
Q 1441 409 1797 409 
Q 2284 409 2611 792 
Q 2938 1175 2938 1728 
z
M 3788 4556 
L 3681 3981 
Q 3500 4100 3265 4162 
Q 3031 4225 2766 4225 
Q 2119 4225 1726 3819 
Q 1334 3413 1141 2547 
Q 1369 2813 1670 2948 
Q 1972 3084 2322 3084 
Q 2894 3084 3233 2754 
Q 3572 2425 3572 1869 
Q 3572 1413 3405 1020 
Q 3238 628 2919 331 
Q 2700 128 2409 18 
Q 2119 -91 1791 -91 
Q 1147 -91 775 318 
Q 403 728 403 1441 
Q 403 2103 573 2717 
Q 744 3331 1050 3781 
Q 1372 4256 1830 4503 
Q 2288 4750 2841 4750 
Q 3084 4750 3321 4701 
Q 3559 4653 3788 4556 
z
" transform="scale(0.015625)"/>
        <path id="DejaVuSans-Oblique-37" d="M 819 4666 
L 4013 4666 
L 3956 4397 
L 1288 0 
L 594 0 
L 3116 4134 
L 716 4134 
L 819 4666 
z
" transform="scale(0.015625)"/>
       </defs>
       <use xlink:href="#DejaVuSans-Oblique-20"/>
       <use xlink:href="#DejaVuSans-Oblique-73" x="31.787109"/>
       <use xlink:href="#DejaVuSans-Oblique-70" x="83.886719"/>
       <use xlink:href="#DejaVuSans-Oblique-2e" x="147.363281"/>
       <use xlink:href="#DejaVuSans-Oblique-20" x="179.150391"/>
       <use xlink:href="#DejaVuSans-Oblique-50" x="210.9375"/>
       <use xlink:href="#DejaVuSans-Oblique-32" x="271.240234"/>
       <use xlink:href="#DejaVuSans-Oblique-36" x="334.863281"/>
       <use xlink:href="#DejaVuSans-Oblique-34" x="398.486328"/>
       <use xlink:href="#DejaVuSans-Oblique-37" x="462.109375"/>
      </g>
     </g>
    </g>
    <g id="xtick_3">
     <g id="line2d_3">
      <g>
       <use xlink:href="#m0dc0c4fb71" x="645.909943" y="499.785874" style="stroke: #000000; stroke-width: 0.8"/>
      </g>
     </g>
     <g id="text_3">
      <!-- Pseudomonas -->
      <g transform="translate(583.151818 520.463062)scale(0.18 -0.18)">
       <use xlink:href="#DejaVuSans-Oblique-50"/>
       <use xlink:href="#DejaVuSans-Oblique-73" x="60.302734"/>
       <use xlink:href="#DejaVuSans-Oblique-65" x="112.402344"/>
       <use xlink:href="#DejaVuSans-Oblique-75" x="173.925781"/>
       <use xlink:href="#DejaVuSans-Oblique-64" x="237.304688"/>
       <use xlink:href="#DejaVuSans-Oblique-6f" x="300.78125"/>
       <use xlink:href="#DejaVuSans-Oblique-6d" x="361.962891"/>
       <use xlink:href="#DejaVuSans-Oblique-6f" x="459.375"/>
       <use xlink:href="#DejaVuSans-Oblique-6e" x="520.556641"/>
       <use xlink:href="#DejaVuSans-Oblique-61" x="583.935547"/>
       <use xlink:href="#DejaVuSans-Oblique-73" x="645.214844"/>
      </g>
      <!--  sp. P2652 -->
      <g transform="translate(598.595255 540.619124)scale(0.18 -0.18)">
       <defs>
        <path id="DejaVuSans-Oblique-35" d="M 3719 4666 
L 3622 4141 
L 1691 4141 
L 1466 2988 
Q 1609 3034 1757 3056 
Q 1906 3078 2059 3078 
Q 2706 3078 3081 2731 
Q 3456 2384 3456 1791 
Q 3456 1375 3264 994 
Q 3072 613 2719 325 
Q 2469 125 2108 17 
Q 1747 -91 1319 -91 
Q 1038 -91 744 -41 
Q 450 9 128 109 
L 244 697 
Q 531 556 820 486 
Q 1109 416 1403 416 
Q 2013 416 2411 781 
Q 2809 1147 2809 1697 
Q 2809 2103 2548 2328 
Q 2288 2553 1819 2553 
Q 1572 2553 1305 2495 
Q 1038 2438 756 2322 
L 1209 4666 
L 3719 4666 
z
" transform="scale(0.015625)"/>
       </defs>
       <use xlink:href="#DejaVuSans-Oblique-20"/>
       <use xlink:href="#DejaVuSans-Oblique-73" x="31.787109"/>
       <use xlink:href="#DejaVuSans-Oblique-70" x="83.886719"/>
       <use xlink:href="#DejaVuSans-Oblique-2e" x="147.363281"/>
       <use xlink:href="#DejaVuSans-Oblique-20" x="179.150391"/>
       <use xlink:href="#DejaVuSans-Oblique-50" x="210.9375"/>
       <use xlink:href="#DejaVuSans-Oblique-32" x="271.240234"/>
       <use xlink:href="#DejaVuSans-Oblique-36" x="334.863281"/>
       <use xlink:href="#DejaVuSans-Oblique-35" x="398.486328"/>
       <use xlink:href="#DejaVuSans-Oblique-32" x="462.109375"/>
      </g>
     </g>
    </g>
    <g id="xtick_4">
     <g id="line2d_4">
      <g>
       <use xlink:href="#m0dc0c4fb71" x="844.448914" y="499.785874" style="stroke: #000000; stroke-width: 0.8"/>
      </g>
     </g>
     <g id="text_4">
      <!-- Pseudomonas -->
      <g transform="translate(781.690789 520.463062)scale(0.18 -0.18)">
       <use xlink:href="#DejaVuSans-Oblique-50"/>
       <use xlink:href="#DejaVuSans-Oblique-73" x="60.302734"/>
       <use xlink:href="#DejaVuSans-Oblique-65" x="112.402344"/>
       <use xlink:href="#DejaVuSans-Oblique-75" x="173.925781"/>
       <use xlink:href="#DejaVuSans-Oblique-64" x="237.304688"/>
       <use xlink:href="#DejaVuSans-Oblique-6f" x="300.78125"/>
       <use xlink:href="#DejaVuSans-Oblique-6d" x="361.962891"/>
       <use xlink:href="#DejaVuSans-Oblique-6f" x="459.375"/>
       <use xlink:href="#DejaVuSans-Oblique-6e" x="520.556641"/>
       <use xlink:href="#DejaVuSans-Oblique-61" x="583.935547"/>
       <use xlink:href="#DejaVuSans-Oblique-73" x="645.214844"/>
      </g>
      <!--  sp. P2653 -->
      <g transform="translate(797.134227 540.619124)scale(0.18 -0.18)">
       <defs>
        <path id="DejaVuSans-Oblique-33" d="M 1013 4550 
Q 1356 4650 1679 4700 
Q 2003 4750 2316 4750 
Q 2934 4750 3296 4475 
Q 3659 4200 3659 3738 
Q 3659 3284 3373 2959 
Q 3088 2634 2584 2516 
Q 2978 2403 3162 2165 
Q 3347 1928 3347 1538 
Q 3347 1163 3167 834 
Q 2988 506 2650 269 
Q 2394 88 2037 -1 
Q 1681 -91 1216 -91 
Q 922 -91 622 -33 
Q 322 25 13 141 
L 128 738 
Q 422 575 720 495 
Q 1019 416 1331 416 
Q 1947 416 2330 733 
Q 2713 1050 2713 1556 
Q 2713 1881 2469 2057 
Q 2225 2234 1772 2234 
L 1228 2234 
L 1325 2747 
L 1900 2747 
Q 2419 2747 2717 2984 
Q 3016 3222 3016 3628 
Q 3016 3922 2797 4083 
Q 2578 4244 2181 4244 
Q 1881 4244 1567 4180 
Q 1253 4116 916 3988 
L 1013 4550 
z
" transform="scale(0.015625)"/>
       </defs>
       <use xlink:href="#DejaVuSans-Oblique-20"/>
       <use xlink:href="#DejaVuSans-Oblique-73" x="31.787109"/>
       <use xlink:href="#DejaVuSans-Oblique-70" x="83.886719"/>
       <use xlink:href="#DejaVuSans-Oblique-2e" x="147.363281"/>
       <use xlink:href="#DejaVuSans-Oblique-20" x="179.150391"/>
       <use xlink:href="#DejaVuSans-Oblique-50" x="210.9375"/>
       <use xlink:href="#DejaVuSans-Oblique-32" x="271.240234"/>
       <use xlink:href="#DejaVuSans-Oblique-36" x="334.863281"/>
       <use xlink:href="#DejaVuSans-Oblique-35" x="398.486328"/>
       <use xlink:href="#DejaVuSans-Oblique-33" x="462.109375"/>
      </g>
     </g>
    </g>
   </g>
   <g id="matplotlib.axis_2">
    <g id="ytick_1">
     <g id="line2d_5">
      <defs>
       <path id="m2bf4d8387d" d="M 0 0 
L -3.5 0 
" style="stroke: #000000; stroke-width: 0.8"/>
      </defs>
      <g>
       <use xlink:href="#m2bf4d8387d" x="149.562514" y="499.785874" style="stroke: #000000; stroke-width: 0.8"/>
      </g>
     </g>
     <g id="text_5">
      <!-- 0% -->
      <g transform="translate(110.834389 507.384312)scale(0.2 -0.2)">
       <defs>
        <path id="DejaVuSans-30" d="M 2034 4250 
Q 1547 4250 1301 3770 
Q 1056 3291 1056 2328 
Q 1056 1369 1301 889 
Q 1547 409 2034 409 
Q 2525 409 2770 889 
Q 3016 1369 3016 2328 
Q 3016 3291 2770 3770 
Q 2525 4250 2034 4250 
z
M 2034 4750 
Q 2819 4750 3233 4129 
Q 3647 3509 3647 2328 
Q 3647 1150 3233 529 
Q 2819 -91 2034 -91 
Q 1250 -91 836 529 
Q 422 1150 422 2328 
Q 422 3509 836 4129 
Q 1250 4750 2034 4750 
z
" transform="scale(0.015625)"/>
        <path id="DejaVuSans-25" d="M 4653 2053 
Q 4381 2053 4226 1822 
Q 4072 1591 4072 1178 
Q 4072 772 4226 539 
Q 4381 306 4653 306 
Q 4919 306 5073 539 
Q 5228 772 5228 1178 
Q 5228 1588 5073 1820 
Q 4919 2053 4653 2053 
z
M 4653 2450 
Q 5147 2450 5437 2106 
Q 5728 1763 5728 1178 
Q 5728 594 5436 251 
Q 5144 -91 4653 -91 
Q 4153 -91 3862 251 
Q 3572 594 3572 1178 
Q 3572 1766 3864 2108 
Q 4156 2450 4653 2450 
z
M 1428 4353 
Q 1159 4353 1004 4120 
Q 850 3888 850 3481 
Q 850 3069 1003 2837 
Q 1156 2606 1428 2606 
Q 1700 2606 1854 2837 
Q 2009 3069 2009 3481 
Q 2009 3884 1853 4118 
Q 1697 4353 1428 4353 
z
M 4250 4750 
L 4750 4750 
L 1831 -91 
L 1331 -91 
L 4250 4750 
z
M 1428 4750 
Q 1922 4750 2215 4408 
Q 2509 4066 2509 3481 
Q 2509 2891 2217 2550 
Q 1925 2209 1428 2209 
Q 931 2209 642 2551 
Q 353 2894 353 3481 
Q 353 4063 643 4406 
Q 934 4750 1428 4750 
z
" transform="scale(0.015625)"/>
       </defs>
       <use xlink:href="#DejaVuSans-30"/>
       <use xlink:href="#DejaVuSans-25" x="63.623047"/>
      </g>
     </g>
    </g>
    <g id="ytick_2">
     <g id="line2d_6">
      <g>
       <use xlink:href="#m2bf4d8387d" x="149.562514" y="404.588565" style="stroke: #000000; stroke-width: 0.8"/>
      </g>
     </g>
     <g id="text_6">
      <!-- 20% -->
      <g transform="translate(98.109389 412.187002)scale(0.2 -0.2)">
       <defs>
        <path id="DejaVuSans-32" d="M 1228 531 
L 3431 531 
L 3431 0 
L 469 0 
L 469 531 
Q 828 903 1448 1529 
Q 2069 2156 2228 2338 
Q 2531 2678 2651 2914 
Q 2772 3150 2772 3378 
Q 2772 3750 2511 3984 
Q 2250 4219 1831 4219 
Q 1534 4219 1204 4116 
Q 875 4013 500 3803 
L 500 4441 
Q 881 4594 1212 4672 
Q 1544 4750 1819 4750 
Q 2544 4750 2975 4387 
Q 3406 4025 3406 3419 
Q 3406 3131 3298 2873 
Q 3191 2616 2906 2266 
Q 2828 2175 2409 1742 
Q 1991 1309 1228 531 
z
" transform="scale(0.015625)"/>
       </defs>
       <use xlink:href="#DejaVuSans-32"/>
       <use xlink:href="#DejaVuSans-30" x="63.623047"/>
       <use xlink:href="#DejaVuSans-25" x="127.246094"/>
      </g>
     </g>
    </g>
    <g id="ytick_3">
     <g id="line2d_7">
      <g>
       <use xlink:href="#m2bf4d8387d" x="149.562514" y="309.391256" style="stroke: #000000; stroke-width: 0.8"/>
      </g>
     </g>
     <g id="text_7">
      <!-- 40% -->
      <g transform="translate(98.109389 316.989693)scale(0.2 -0.2)">
       <defs>
        <path id="DejaVuSans-34" d="M 2419 4116 
L 825 1625 
L 2419 1625 
L 2419 4116 
z
M 2253 4666 
L 3047 4666 
L 3047 1625 
L 3713 1625 
L 3713 1100 
L 3047 1100 
L 3047 0 
L 2419 0 
L 2419 1100 
L 313 1100 
L 313 1709 
L 2253 4666 
z
" transform="scale(0.015625)"/>
       </defs>
       <use xlink:href="#DejaVuSans-34"/>
       <use xlink:href="#DejaVuSans-30" x="63.623047"/>
       <use xlink:href="#DejaVuSans-25" x="127.246094"/>
      </g>
     </g>
    </g>
    <g id="ytick_4">
     <g id="line2d_8">
      <g>
       <use xlink:href="#m2bf4d8387d" x="149.562514" y="214.193946" style="stroke: #000000; stroke-width: 0.8"/>
      </g>
     </g>
     <g id="text_8">
      <!-- 60% -->
      <g transform="translate(98.109389 221.792384)scale(0.2 -0.2)">
       <defs>
        <path id="DejaVuSans-36" d="M 2113 2584 
Q 1688 2584 1439 2293 
Q 1191 2003 1191 1497 
Q 1191 994 1439 701 
Q 1688 409 2113 409 
Q 2538 409 2786 701 
Q 3034 994 3034 1497 
Q 3034 2003 2786 2293 
Q 2538 2584 2113 2584 
z
M 3366 4563 
L 3366 3988 
Q 3128 4100 2886 4159 
Q 2644 4219 2406 4219 
Q 1781 4219 1451 3797 
Q 1122 3375 1075 2522 
Q 1259 2794 1537 2939 
Q 1816 3084 2150 3084 
Q 2853 3084 3261 2657 
Q 3669 2231 3669 1497 
Q 3669 778 3244 343 
Q 2819 -91 2113 -91 
Q 1303 -91 875 529 
Q 447 1150 447 2328 
Q 447 3434 972 4092 
Q 1497 4750 2381 4750 
Q 2619 4750 2861 4703 
Q 3103 4656 3366 4563 
z
" transform="scale(0.015625)"/>
       </defs>
       <use xlink:href="#DejaVuSans-36"/>
       <use xlink:href="#DejaVuSans-30" x="63.623047"/>
       <use xlink:href="#DejaVuSans-25" x="127.246094"/>
      </g>
     </g>
    </g>
    <g id="ytick_5">
     <g id="line2d_9">
      <g>
       <use xlink:href="#m2bf4d8387d" x="149.562514" y="118.996637" style="stroke: #000000; stroke-width: 0.8"/>
      </g>
     </g>
     <g id="text_9">
      <!-- 80% -->
      <g transform="translate(98.109389 126.595074)scale(0.2 -0.2)">
       <defs>
        <path id="DejaVuSans-38" d="M 2034 2216 
Q 1584 2216 1326 1975 
Q 1069 1734 1069 1313 
Q 1069 891 1326 650 
Q 1584 409 2034 409 
Q 2484 409 2743 651 
Q 3003 894 3003 1313 
Q 3003 1734 2745 1975 
Q 2488 2216 2034 2216 
z
M 1403 2484 
Q 997 2584 770 2862 
Q 544 3141 544 3541 
Q 544 4100 942 4425 
Q 1341 4750 2034 4750 
Q 2731 4750 3128 4425 
Q 3525 4100 3525 3541 
Q 3525 3141 3298 2862 
Q 3072 2584 2669 2484 
Q 3125 2378 3379 2068 
Q 3634 1759 3634 1313 
Q 3634 634 3220 271 
Q 2806 -91 2034 -91 
Q 1263 -91 848 271 
Q 434 634 434 1313 
Q 434 1759 690 2068 
Q 947 2378 1403 2484 
z
M 1172 3481 
Q 1172 3119 1398 2916 
Q 1625 2713 2034 2713 
Q 2441 2713 2670 2916 
Q 2900 3119 2900 3481 
Q 2900 3844 2670 4047 
Q 2441 4250 2034 4250 
Q 1625 4250 1398 4047 
Q 1172 3844 1172 3481 
z
" transform="scale(0.015625)"/>
       </defs>
       <use xlink:href="#DejaVuSans-38"/>
       <use xlink:href="#DejaVuSans-30" x="63.623047"/>
       <use xlink:href="#DejaVuSans-25" x="127.246094"/>
      </g>
     </g>
    </g>
    <g id="ytick_6">
     <g id="line2d_10">
      <g>
       <use xlink:href="#m2bf4d8387d" x="149.562514" y="23.799327" style="stroke: #000000; stroke-width: 0.8"/>
      </g>
     </g>
     <g id="text_10">
      <!-- 100% -->
      <g transform="translate(85.384389 31.397765)scale(0.2 -0.2)">
       <defs>
        <path id="DejaVuSans-31" d="M 794 531 
L 1825 531 
L 1825 4091 
L 703 3866 
L 703 4441 
L 1819 4666 
L 2450 4666 
L 2450 531 
L 3481 531 
L 3481 0 
L 794 0 
L 794 531 
z
" transform="scale(0.015625)"/>
       </defs>
       <use xlink:href="#DejaVuSans-31"/>
       <use xlink:href="#DejaVuSans-30" x="63.623047"/>
       <use xlink:href="#DejaVuSans-30" x="127.246094"/>
       <use xlink:href="#DejaVuSans-25" x="190.869141"/>
      </g>
     </g>
    </g>
    <g id="text_11">
     <!-- Relative abundance -->
     <g transform="translate(77.225014 349.016375)rotate(-90)scale(0.2 -0.2)">
      <defs>
       <path id="DejaVuSans-52" d="M 2841 2188 
Q 3044 2119 3236 1894 
Q 3428 1669 3622 1275 
L 4263 0 
L 3584 0 
L 2988 1197 
Q 2756 1666 2539 1819 
Q 2322 1972 1947 1972 
L 1259 1972 
L 1259 0 
L 628 0 
L 628 4666 
L 2053 4666 
Q 2853 4666 3247 4331 
Q 3641 3997 3641 3322 
Q 3641 2881 3436 2590 
Q 3231 2300 2841 2188 
z
M 1259 4147 
L 1259 2491 
L 2053 2491 
Q 2509 2491 2742 2702 
Q 2975 2913 2975 3322 
Q 2975 3731 2742 3939 
Q 2509 4147 2053 4147 
L 1259 4147 
z
" transform="scale(0.015625)"/>
       <path id="DejaVuSans-65" d="M 3597 1894 
L 3597 1613 
L 953 1613 
Q 991 1019 1311 708 
Q 1631 397 2203 397 
Q 2534 397 2845 478 
Q 3156 559 3463 722 
L 3463 178 
Q 3153 47 2828 -22 
Q 2503 -91 2169 -91 
Q 1331 -91 842 396 
Q 353 884 353 1716 
Q 353 2575 817 3079 
Q 1281 3584 2069 3584 
Q 2775 3584 3186 3129 
Q 3597 2675 3597 1894 
z
M 3022 2063 
Q 3016 2534 2758 2815 
Q 2500 3097 2075 3097 
Q 1594 3097 1305 2825 
Q 1016 2553 972 2059 
L 3022 2063 
z
" transform="scale(0.015625)"/>
       <path id="DejaVuSans-6c" d="M 603 4863 
L 1178 4863 
L 1178 0 
L 603 0 
L 603 4863 
z
" transform="scale(0.015625)"/>
       <path id="DejaVuSans-61" d="M 2194 1759 
Q 1497 1759 1228 1600 
Q 959 1441 959 1056 
Q 959 750 1161 570 
Q 1363 391 1709 391 
Q 2188 391 2477 730 
Q 2766 1069 2766 1631 
L 2766 1759 
L 2194 1759 
z
M 3341 1997 
L 3341 0 
L 2766 0 
L 2766 531 
Q 2569 213 2275 61 
Q 1981 -91 1556 -91 
Q 1019 -91 701 211 
Q 384 513 384 1019 
Q 384 1609 779 1909 
Q 1175 2209 1959 2209 
L 2766 2209 
L 2766 2266 
Q 2766 2663 2505 2880 
Q 2244 3097 1772 3097 
Q 1472 3097 1187 3025 
Q 903 2953 641 2809 
L 641 3341 
Q 956 3463 1253 3523 
Q 1550 3584 1831 3584 
Q 2591 3584 2966 3190 
Q 3341 2797 3341 1997 
z
" transform="scale(0.015625)"/>
       <path id="DejaVuSans-74" d="M 1172 4494 
L 1172 3500 
L 2356 3500 
L 2356 3053 
L 1172 3053 
L 1172 1153 
Q 1172 725 1289 603 
Q 1406 481 1766 481 
L 2356 481 
L 2356 0 
L 1766 0 
Q 1100 0 847 248 
Q 594 497 594 1153 
L 594 3053 
L 172 3053 
L 172 3500 
L 594 3500 
L 594 4494 
L 1172 4494 
z
" transform="scale(0.015625)"/>
       <path id="DejaVuSans-69" d="M 603 3500 
L 1178 3500 
L 1178 0 
L 603 0 
L 603 3500 
z
M 603 4863 
L 1178 4863 
L 1178 4134 
L 603 4134 
L 603 4863 
z
" transform="scale(0.015625)"/>
       <path id="DejaVuSans-76" d="M 191 3500 
L 800 3500 
L 1894 563 
L 2988 3500 
L 3597 3500 
L 2284 0 
L 1503 0 
L 191 3500 
z
" transform="scale(0.015625)"/>
       <path id="DejaVuSans-20" transform="scale(0.015625)"/>
       <path id="DejaVuSans-62" d="M 3116 1747 
Q 3116 2381 2855 2742 
Q 2594 3103 2138 3103 
Q 1681 3103 1420 2742 
Q 1159 2381 1159 1747 
Q 1159 1113 1420 752 
Q 1681 391 2138 391 
Q 2594 391 2855 752 
Q 3116 1113 3116 1747 
z
M 1159 2969 
Q 1341 3281 1617 3432 
Q 1894 3584 2278 3584 
Q 2916 3584 3314 3078 
Q 3713 2572 3713 1747 
Q 3713 922 3314 415 
Q 2916 -91 2278 -91 
Q 1894 -91 1617 61 
Q 1341 213 1159 525 
L 1159 0 
L 581 0 
L 581 4863 
L 1159 4863 
L 1159 2969 
z
" transform="scale(0.015625)"/>
       <path id="DejaVuSans-75" d="M 544 1381 
L 544 3500 
L 1119 3500 
L 1119 1403 
Q 1119 906 1312 657 
Q 1506 409 1894 409 
Q 2359 409 2629 706 
Q 2900 1003 2900 1516 
L 2900 3500 
L 3475 3500 
L 3475 0 
L 2900 0 
L 2900 538 
Q 2691 219 2414 64 
Q 2138 -91 1772 -91 
Q 1169 -91 856 284 
Q 544 659 544 1381 
z
M 1991 3584 
L 1991 3584 
z
" transform="scale(0.015625)"/>
       <path id="DejaVuSans-6e" d="M 3513 2113 
L 3513 0 
L 2938 0 
L 2938 2094 
Q 2938 2591 2744 2837 
Q 2550 3084 2163 3084 
Q 1697 3084 1428 2787 
Q 1159 2491 1159 1978 
L 1159 0 
L 581 0 
L 581 3500 
L 1159 3500 
L 1159 2956 
Q 1366 3272 1645 3428 
Q 1925 3584 2291 3584 
Q 2894 3584 3203 3211 
Q 3513 2838 3513 2113 
z
" transform="scale(0.015625)"/>
       <path id="DejaVuSans-64" d="M 2906 2969 
L 2906 4863 
L 3481 4863 
L 3481 0 
L 2906 0 
L 2906 525 
Q 2725 213 2448 61 
Q 2172 -91 1784 -91 
Q 1150 -91 751 415 
Q 353 922 353 1747 
Q 353 2572 751 3078 
Q 1150 3584 1784 3584 
Q 2172 3584 2448 3432 
Q 2725 3281 2906 2969 
z
M 947 1747 
Q 947 1113 1208 752 
Q 1469 391 1925 391 
Q 2381 391 2643 752 
Q 2906 1113 2906 1747 
Q 2906 2381 2643 2742 
Q 2381 3103 1925 3103 
Q 1469 3103 1208 2742 
Q 947 2381 947 1747 
z
" transform="scale(0.015625)"/>
       <path id="DejaVuSans-63" d="M 3122 3366 
L 3122 2828 
Q 2878 2963 2633 3030 
Q 2388 3097 2138 3097 
Q 1578 3097 1268 2742 
Q 959 2388 959 1747 
Q 959 1106 1268 751 
Q 1578 397 2138 397 
Q 2388 397 2633 464 
Q 2878 531 3122 666 
L 3122 134 
Q 2881 22 2623 -34 
Q 2366 -91 2075 -91 
Q 1284 -91 818 406 
Q 353 903 353 1747 
Q 353 2603 823 3093 
Q 1294 3584 2113 3584 
Q 2378 3584 2631 3529 
Q 2884 3475 3122 3366 
z
" transform="scale(0.015625)"/>
      </defs>
      <use xlink:href="#DejaVuSans-52"/>
      <use xlink:href="#DejaVuSans-65" x="64.982422"/>
      <use xlink:href="#DejaVuSans-6c" x="126.505859"/>
      <use xlink:href="#DejaVuSans-61" x="154.289062"/>
      <use xlink:href="#DejaVuSans-74" x="215.568359"/>
      <use xlink:href="#DejaVuSans-69" x="254.777344"/>
      <use xlink:href="#DejaVuSans-76" x="282.560547"/>
      <use xlink:href="#DejaVuSans-65" x="341.740234"/>
      <use xlink:href="#DejaVuSans-20" x="403.263672"/>
      <use xlink:href="#DejaVuSans-61" x="435.050781"/>
      <use xlink:href="#DejaVuSans-62" x="496.330078"/>
      <use xlink:href="#DejaVuSans-75" x="559.806641"/>
      <use xlink:href="#DejaVuSans-6e" x="623.185547"/>
      <use xlink:href="#DejaVuSans-64" x="686.564453"/>
      <use xlink:href="#DejaVuSans-61" x="750.041016"/>
      <use xlink:href="#DejaVuSans-6e" x="811.320312"/>
      <use xlink:href="#DejaVuSans-63" x="874.699219"/>
      <use xlink:href="#DejaVuSans-65" x="929.679688"/>
     </g>
    </g>
   </g>
   <g id="patch_111">
    <path d="M 149.562514 499.785874 
L 149.562514 -0 
" style="fill: none; stroke: #000000; stroke-width: 0.8; stroke-linejoin: miter; stroke-linecap: square"/>
   </g>
   <g id="patch_112">
    <path d="M 943.7184 499.785874 
L 943.7184 -0 
" style="fill: none; stroke: #000000; stroke-width: 0.8; stroke-linejoin: miter; stroke-linecap: square"/>
   </g>
   <g id="patch_113">
    <path d="M 149.562514 499.785874 
L 943.7184 499.785874 
" style="fill: none; stroke: #000000; stroke-width: 0.8; stroke-linejoin: miter; stroke-linecap: square"/>
   </g>
   <g id="patch_114">
    <path d="M 149.562514 0 
L 943.7184 0 
" style="fill: none; stroke: #000000; stroke-width: 0.8; stroke-linejoin: miter; stroke-linecap: square"/>
   </g>
   <g id="legend_1">
    <g id="patch_115">
     <path d="M 954.059959 499.688437 
L 1046.984959 499.688437 
Q 1049.384959 499.688437 1049.384959 497.288437 
L 1049.384959 2.4 
Q 1049.384959 0 1046.984959 0 
L 954.059959 0 
Q 951.659959 0 951.659959 2.4 
L 951.659959 497.288437 
Q 951.659959 499.688437 954.059959 499.688437 
z
" style="fill: #ffffff; opacity: 0.8; stroke: #cccccc; stroke-linejoin: miter"/>
    </g>
    <g id="text_12">
     <!-- Category -->
     <g transform="translate(966.261521 16.197656)scale(0.15 -0.15)">
      <defs>
       <path id="DejaVuSans-43" d="M 4122 4306 
L 4122 3641 
Q 3803 3938 3442 4084 
Q 3081 4231 2675 4231 
Q 1875 4231 1450 3742 
Q 1025 3253 1025 2328 
Q 1025 1406 1450 917 
Q 1875 428 2675 428 
Q 3081 428 3442 575 
Q 3803 722 4122 1019 
L 4122 359 
Q 3791 134 3420 21 
Q 3050 -91 2638 -91 
Q 1578 -91 968 557 
Q 359 1206 359 2328 
Q 359 3453 968 4101 
Q 1578 4750 2638 4750 
Q 3056 4750 3426 4639 
Q 3797 4528 4122 4306 
z
" transform="scale(0.015625)"/>
       <path id="DejaVuSans-67" d="M 2906 1791 
Q 2906 2416 2648 2759 
Q 2391 3103 1925 3103 
Q 1463 3103 1205 2759 
Q 947 2416 947 1791 
Q 947 1169 1205 825 
Q 1463 481 1925 481 
Q 2391 481 2648 825 
Q 2906 1169 2906 1791 
z
M 3481 434 
Q 3481 -459 3084 -895 
Q 2688 -1331 1869 -1331 
Q 1566 -1331 1297 -1286 
Q 1028 -1241 775 -1147 
L 775 -588 
Q 1028 -725 1275 -790 
Q 1522 -856 1778 -856 
Q 2344 -856 2625 -561 
Q 2906 -266 2906 331 
L 2906 616 
Q 2728 306 2450 153 
Q 2172 0 1784 0 
Q 1141 0 747 490 
Q 353 981 353 1791 
Q 353 2603 747 3093 
Q 1141 3584 1784 3584 
Q 2172 3584 2450 3431 
Q 2728 3278 2906 2969 
L 2906 3500 
L 3481 3500 
L 3481 434 
z
" transform="scale(0.015625)"/>
       <path id="DejaVuSans-6f" d="M 1959 3097 
Q 1497 3097 1228 2736 
Q 959 2375 959 1747 
Q 959 1119 1226 758 
Q 1494 397 1959 397 
Q 2419 397 2687 759 
Q 2956 1122 2956 1747 
Q 2956 2369 2687 2733 
Q 2419 3097 1959 3097 
z
M 1959 3584 
Q 2709 3584 3137 3096 
Q 3566 2609 3566 1747 
Q 3566 888 3137 398 
Q 2709 -91 1959 -91 
Q 1206 -91 779 398 
Q 353 888 353 1747 
Q 353 2609 779 3096 
Q 1206 3584 1959 3584 
z
" transform="scale(0.015625)"/>
       <path id="DejaVuSans-72" d="M 2631 2963 
Q 2534 3019 2420 3045 
Q 2306 3072 2169 3072 
Q 1681 3072 1420 2755 
Q 1159 2438 1159 1844 
L 1159 0 
L 581 0 
L 581 3500 
L 1159 3500 
L 1159 2956 
Q 1341 3275 1631 3429 
Q 1922 3584 2338 3584 
Q 2397 3584 2469 3576 
Q 2541 3569 2628 3553 
L 2631 2963 
z
" transform="scale(0.015625)"/>
       <path id="DejaVuSans-79" d="M 2059 -325 
Q 1816 -950 1584 -1140 
Q 1353 -1331 966 -1331 
L 506 -1331 
L 506 -850 
L 844 -850 
Q 1081 -850 1212 -737 
Q 1344 -625 1503 -206 
L 1606 56 
L 191 3500 
L 800 3500 
L 1894 763 
L 2988 3500 
L 3597 3500 
L 2059 -325 
z
" transform="scale(0.015625)"/>
      </defs>
      <use xlink:href="#DejaVuSans-43"/>
      <use xlink:href="#DejaVuSans-61" x="69.824219"/>
      <use xlink:href="#DejaVuSans-74" x="131.103516"/>
      <use xlink:href="#DejaVuSans-65" x="170.3125"/>
      <use xlink:href="#DejaVuSans-67" x="231.835938"/>
      <use xlink:href="#DejaVuSans-6f" x="295.3125"/>
      <use xlink:href="#DejaVuSans-72" x="356.494141"/>
      <use xlink:href="#DejaVuSans-79" x="397.607422"/>
     </g>
    </g>
    <g id="patch_116">
     <path d="M 956.459959 34.435313 
L 980.459959 34.435313 
L 980.459959 26.035313 
L 956.459959 26.035313 
z
" style="fill: #525252"/>
    </g>
    <g id="text_13">
     <!-- unknown -->
     <g transform="translate(990.059959 34.435313)scale(0.12 -0.12)">
      <defs>
       <path id="DejaVuSans-6b" d="M 581 4863 
L 1159 4863 
L 1159 1991 
L 2875 3500 
L 3609 3500 
L 1753 1863 
L 3688 0 
L 2938 0 
L 1159 1709 
L 1159 0 
L 581 0 
L 581 4863 
z
" transform="scale(0.015625)"/>
       <path id="DejaVuSans-77" d="M 269 3500 
L 844 3500 
L 1563 769 
L 2278 3500 
L 2956 3500 
L 3675 769 
L 4391 3500 
L 4966 3500 
L 4050 0 
L 3372 0 
L 2619 2869 
L 1863 0 
L 1184 0 
L 269 3500 
z
" transform="scale(0.015625)"/>
      </defs>
      <use xlink:href="#DejaVuSans-75"/>
      <use xlink:href="#DejaVuSans-6e" x="63.378906"/>
      <use xlink:href="#DejaVuSans-6b" x="126.757812"/>
      <use xlink:href="#DejaVuSans-6e" x="184.667969"/>
      <use xlink:href="#DejaVuSans-6f" x="248.046875"/>
      <use xlink:href="#DejaVuSans-77" x="309.228516"/>
      <use xlink:href="#DejaVuSans-6e" x="391.015625"/>
     </g>
    </g>
    <g id="patch_117">
     <path d="M 956.459959 52.049062 
L 980.459959 52.049062 
L 980.459959 43.649062 
L 956.459959 43.649062 
z
" style="fill: #1f77b4"/>
    </g>
    <g id="text_14">
     <!-- J -->
     <g transform="translate(990.059959 52.049062)scale(0.12 -0.12)">
      <defs>
       <path id="DejaVuSans-4a" d="M 628 4666 
L 1259 4666 
L 1259 325 
Q 1259 -519 939 -900 
Q 619 -1281 -91 -1281 
L -331 -1281 
L -331 -750 
L -134 -750 
Q 284 -750 456 -515 
Q 628 -281 628 325 
L 628 4666 
z
" transform="scale(0.015625)"/>
      </defs>
      <use xlink:href="#DejaVuSans-4a"/>
     </g>
    </g>
    <g id="patch_118">
     <path d="M 956.459959 69.662812 
L 980.459959 69.662812 
L 980.459959 61.262812 
L 956.459959 61.262812 
z
" style="fill: #aec7e8"/>
    </g>
    <g id="text_15">
     <!-- A -->
     <g transform="translate(990.059959 69.662812)scale(0.12 -0.12)">
      <defs>
       <path id="DejaVuSans-41" d="M 2188 4044 
L 1331 1722 
L 3047 1722 
L 2188 4044 
z
M 1831 4666 
L 2547 4666 
L 4325 0 
L 3669 0 
L 3244 1197 
L 1141 1197 
L 716 0 
L 50 0 
L 1831 4666 
z
" transform="scale(0.015625)"/>
      </defs>
      <use xlink:href="#DejaVuSans-41"/>
     </g>
    </g>
    <g id="patch_119">
     <path d="M 956.459959 87.276563 
L 980.459959 87.276563 
L 980.459959 78.876563 
L 956.459959 78.876563 
z
" style="fill: #ff7f0e"/>
    </g>
    <g id="text_16">
     <!-- K -->
     <g transform="translate(990.059959 87.276563)scale(0.12 -0.12)">
      <defs>
       <path id="DejaVuSans-4b" d="M 628 4666 
L 1259 4666 
L 1259 2694 
L 3353 4666 
L 4166 4666 
L 1850 2491 
L 4331 0 
L 3500 0 
L 1259 2247 
L 1259 0 
L 628 0 
L 628 4666 
z
" transform="scale(0.015625)"/>
      </defs>
      <use xlink:href="#DejaVuSans-4b"/>
     </g>
    </g>
    <g id="patch_120">
     <path d="M 956.459959 104.890312 
L 980.459959 104.890312 
L 980.459959 96.490312 
L 956.459959 96.490312 
z
" style="fill: #ffbb78"/>
    </g>
    <g id="text_17">
     <!-- L -->
     <g transform="translate(990.059959 104.890312)scale(0.12 -0.12)">
      <defs>
       <path id="DejaVuSans-4c" d="M 628 4666 
L 1259 4666 
L 1259 531 
L 3531 531 
L 3531 0 
L 628 0 
L 628 4666 
z
" transform="scale(0.015625)"/>
      </defs>
      <use xlink:href="#DejaVuSans-4c"/>
     </g>
    </g>
    <g id="patch_121">
     <path d="M 956.459959 122.504062 
L 980.459959 122.504062 
L 980.459959 114.104062 
L 956.459959 114.104062 
z
" style="fill: #2ca02c"/>
    </g>
    <g id="text_18">
     <!-- B -->
     <g transform="translate(990.059959 122.504062)scale(0.12 -0.12)">
      <defs>
       <path id="DejaVuSans-42" d="M 1259 2228 
L 1259 519 
L 2272 519 
Q 2781 519 3026 730 
Q 3272 941 3272 1375 
Q 3272 1813 3026 2020 
Q 2781 2228 2272 2228 
L 1259 2228 
z
M 1259 4147 
L 1259 2741 
L 2194 2741 
Q 2656 2741 2882 2914 
Q 3109 3088 3109 3444 
Q 3109 3797 2882 3972 
Q 2656 4147 2194 4147 
L 1259 4147 
z
M 628 4666 
L 2241 4666 
Q 2963 4666 3353 4366 
Q 3744 4066 3744 3513 
Q 3744 3084 3544 2831 
Q 3344 2578 2956 2516 
Q 3422 2416 3680 2098 
Q 3938 1781 3938 1306 
Q 3938 681 3513 340 
Q 3088 0 2303 0 
L 628 0 
L 628 4666 
z
" transform="scale(0.015625)"/>
      </defs>
      <use xlink:href="#DejaVuSans-42"/>
     </g>
    </g>
    <g id="patch_122">
     <path d="M 956.459959 140.117812 
L 980.459959 140.117812 
L 980.459959 131.717812 
L 956.459959 131.717812 
z
" style="fill: #98df8a"/>
    </g>
    <g id="text_19">
     <!-- D -->
     <g transform="translate(990.059959 140.117812)scale(0.12 -0.12)">
      <defs>
       <path id="DejaVuSans-44" d="M 1259 4147 
L 1259 519 
L 2022 519 
Q 2988 519 3436 956 
Q 3884 1394 3884 2338 
Q 3884 3275 3436 3711 
Q 2988 4147 2022 4147 
L 1259 4147 
z
M 628 4666 
L 1925 4666 
Q 3281 4666 3915 4102 
Q 4550 3538 4550 2338 
Q 4550 1131 3912 565 
Q 3275 0 1925 0 
L 628 0 
L 628 4666 
z
" transform="scale(0.015625)"/>
      </defs>
      <use xlink:href="#DejaVuSans-44"/>
     </g>
    </g>
    <g id="patch_123">
     <path d="M 956.459959 157.731562 
L 980.459959 157.731562 
L 980.459959 149.331562 
L 956.459959 149.331562 
z
" style="fill: #d62728"/>
    </g>
    <g id="text_20">
     <!-- Y -->
     <g transform="translate(990.059959 157.731562)scale(0.12 -0.12)">
      <defs>
       <path id="DejaVuSans-59" d="M -13 4666 
L 666 4666 
L 1959 2747 
L 3244 4666 
L 3922 4666 
L 2272 2222 
L 2272 0 
L 1638 0 
L 1638 2222 
L -13 4666 
z
" transform="scale(0.015625)"/>
      </defs>
      <use xlink:href="#DejaVuSans-59"/>
     </g>
    </g>
    <g id="patch_124">
     <path d="M 956.459959 175.345312 
L 980.459959 175.345312 
L 980.459959 166.945312 
L 956.459959 166.945312 
z
" style="fill: #ff9896"/>
    </g>
    <g id="text_21">
     <!-- V -->
     <g transform="translate(990.059959 175.345312)scale(0.12 -0.12)">
      <defs>
       <path id="DejaVuSans-56" d="M 1831 0 
L 50 4666 
L 709 4666 
L 2188 738 
L 3669 4666 
L 4325 4666 
L 2547 0 
L 1831 0 
z
" transform="scale(0.015625)"/>
      </defs>
      <use xlink:href="#DejaVuSans-56"/>
     </g>
    </g>
    <g id="patch_125">
     <path d="M 956.459959 192.959063 
L 980.459959 192.959063 
L 980.459959 184.559063 
L 956.459959 184.559063 
z
" style="fill: #9467bd"/>
    </g>
    <g id="text_22">
     <!-- T -->
     <g transform="translate(990.059959 192.959063)scale(0.12 -0.12)">
      <defs>
       <path id="DejaVuSans-54" d="M -19 4666 
L 3928 4666 
L 3928 4134 
L 2272 4134 
L 2272 0 
L 1638 0 
L 1638 4134 
L -19 4134 
L -19 4666 
z
" transform="scale(0.015625)"/>
      </defs>
      <use xlink:href="#DejaVuSans-54"/>
     </g>
    </g>
    <g id="patch_126">
     <path d="M 956.459959 210.572812 
L 980.459959 210.572812 
L 980.459959 202.172812 
L 956.459959 202.172812 
z
" style="fill: #c5b0d5"/>
    </g>
    <g id="text_23">
     <!-- M -->
     <g transform="translate(990.059959 210.572812)scale(0.12 -0.12)">
      <defs>
       <path id="DejaVuSans-4d" d="M 628 4666 
L 1569 4666 
L 2759 1491 
L 3956 4666 
L 4897 4666 
L 4897 0 
L 4281 0 
L 4281 4097 
L 3078 897 
L 2444 897 
L 1241 4097 
L 1241 0 
L 628 0 
L 628 4666 
z
" transform="scale(0.015625)"/>
      </defs>
      <use xlink:href="#DejaVuSans-4d"/>
     </g>
    </g>
    <g id="patch_127">
     <path d="M 956.459959 228.186562 
L 980.459959 228.186562 
L 980.459959 219.786562 
L 956.459959 219.786562 
z
" style="fill: #8c564b"/>
    </g>
    <g id="text_24">
     <!-- N -->
     <g transform="translate(990.059959 228.186562)scale(0.12 -0.12)">
      <defs>
       <path id="DejaVuSans-4e" d="M 628 4666 
L 1478 4666 
L 3547 763 
L 3547 4666 
L 4159 4666 
L 4159 0 
L 3309 0 
L 1241 3903 
L 1241 0 
L 628 0 
L 628 4666 
z
" transform="scale(0.015625)"/>
      </defs>
      <use xlink:href="#DejaVuSans-4e"/>
     </g>
    </g>
    <g id="patch_128">
     <path d="M 956.459959 245.800313 
L 980.459959 245.800313 
L 980.459959 237.400313 
L 956.459959 237.400313 
z
" style="fill: #c49c94"/>
    </g>
    <g id="text_25">
     <!-- Z -->
     <g transform="translate(990.059959 245.800313)scale(0.12 -0.12)">
      <defs>
       <path id="DejaVuSans-5a" d="M 359 4666 
L 4025 4666 
L 4025 4184 
L 1075 531 
L 4097 531 
L 4097 0 
L 288 0 
L 288 481 
L 3238 4134 
L 359 4134 
L 359 4666 
z
" transform="scale(0.015625)"/>
      </defs>
      <use xlink:href="#DejaVuSans-5a"/>
     </g>
    </g>
    <g id="patch_129">
     <path d="M 956.459959 263.414062 
L 980.459959 263.414062 
L 980.459959 255.014062 
L 956.459959 255.014062 
z
" style="fill: #e377c2"/>
    </g>
    <g id="text_26">
     <!-- W -->
     <g transform="translate(990.059959 263.414062)scale(0.12 -0.12)">
      <defs>
       <path id="DejaVuSans-57" d="M 213 4666 
L 850 4666 
L 1831 722 
L 2809 4666 
L 3519 4666 
L 4500 722 
L 5478 4666 
L 6119 4666 
L 4947 0 
L 4153 0 
L 3169 4050 
L 2175 0 
L 1381 0 
L 213 4666 
z
" transform="scale(0.015625)"/>
      </defs>
      <use xlink:href="#DejaVuSans-57"/>
     </g>
    </g>
    <g id="patch_130">
     <path d="M 956.459959 281.027813 
L 980.459959 281.027813 
L 980.459959 272.627813 
L 956.459959 272.627813 
z
" style="fill: #f7b6d2"/>
    </g>
    <g id="text_27">
     <!-- U -->
     <g transform="translate(990.059959 281.027813)scale(0.12 -0.12)">
      <defs>
       <path id="DejaVuSans-55" d="M 556 4666 
L 1191 4666 
L 1191 1831 
Q 1191 1081 1462 751 
Q 1734 422 2344 422 
Q 2950 422 3222 751 
Q 3494 1081 3494 1831 
L 3494 4666 
L 4128 4666 
L 4128 1753 
Q 4128 841 3676 375 
Q 3225 -91 2344 -91 
Q 1459 -91 1007 375 
Q 556 841 556 1753 
L 556 4666 
z
" transform="scale(0.015625)"/>
      </defs>
      <use xlink:href="#DejaVuSans-55"/>
     </g>
    </g>
    <g id="patch_131">
     <path d="M 956.459959 298.641563 
L 980.459959 298.641563 
L 980.459959 290.241563 
L 956.459959 290.241563 
z
" style="fill: #7f7f7f"/>
    </g>
    <g id="text_28">
     <!-- O -->
     <g transform="translate(990.059959 298.641563)scale(0.12 -0.12)">
      <defs>
       <path id="DejaVuSans-4f" d="M 2522 4238 
Q 1834 4238 1429 3725 
Q 1025 3213 1025 2328 
Q 1025 1447 1429 934 
Q 1834 422 2522 422 
Q 3209 422 3611 934 
Q 4013 1447 4013 2328 
Q 4013 3213 3611 3725 
Q 3209 4238 2522 4238 
z
M 2522 4750 
Q 3503 4750 4090 4092 
Q 4678 3434 4678 2328 
Q 4678 1225 4090 567 
Q 3503 -91 2522 -91 
Q 1538 -91 948 565 
Q 359 1222 359 2328 
Q 359 3434 948 4092 
Q 1538 4750 2522 4750 
z
" transform="scale(0.015625)"/>
      </defs>
      <use xlink:href="#DejaVuSans-4f"/>
     </g>
    </g>
    <g id="patch_132">
     <path d="M 956.459959 316.255313 
L 980.459959 316.255313 
L 980.459959 307.855313 
L 956.459959 307.855313 
z
" style="fill: #c7c7c7"/>
    </g>
    <g id="text_29">
     <!-- X -->
     <g transform="translate(990.059959 316.255313)scale(0.12 -0.12)">
      <defs>
       <path id="DejaVuSans-58" d="M 403 4666 
L 1081 4666 
L 2241 2931 
L 3406 4666 
L 4084 4666 
L 2584 2425 
L 4184 0 
L 3506 0 
L 2194 1984 
L 872 0 
L 191 0 
L 1856 2491 
L 403 4666 
z
" transform="scale(0.015625)"/>
      </defs>
      <use xlink:href="#DejaVuSans-58"/>
     </g>
    </g>
    <g id="patch_133">
     <path d="M 956.459959 333.869063 
L 980.459959 333.869063 
L 980.459959 325.469063 
L 956.459959 325.469063 
z
" style="fill: #bcbd22"/>
    </g>
    <g id="text_30">
     <!-- C -->
     <g transform="translate(990.059959 333.869063)scale(0.12 -0.12)">
      <use xlink:href="#DejaVuSans-43"/>
     </g>
    </g>
    <g id="patch_134">
     <path d="M 956.459959 351.482813 
L 980.459959 351.482813 
L 980.459959 343.082813 
L 956.459959 343.082813 
z
" style="fill: #dbdb8d"/>
    </g>
    <g id="text_31">
     <!-- G -->
     <g transform="translate(990.059959 351.482813)scale(0.12 -0.12)">
      <defs>
       <path id="DejaVuSans-47" d="M 3809 666 
L 3809 1919 
L 2778 1919 
L 2778 2438 
L 4434 2438 
L 4434 434 
Q 4069 175 3628 42 
Q 3188 -91 2688 -91 
Q 1594 -91 976 548 
Q 359 1188 359 2328 
Q 359 3472 976 4111 
Q 1594 4750 2688 4750 
Q 3144 4750 3555 4637 
Q 3966 4525 4313 4306 
L 4313 3634 
Q 3963 3931 3569 4081 
Q 3175 4231 2741 4231 
Q 1884 4231 1454 3753 
Q 1025 3275 1025 2328 
Q 1025 1384 1454 906 
Q 1884 428 2741 428 
Q 3075 428 3337 486 
Q 3600 544 3809 666 
z
" transform="scale(0.015625)"/>
      </defs>
      <use xlink:href="#DejaVuSans-47"/>
     </g>
    </g>
    <g id="patch_135">
     <path d="M 956.459959 369.096563 
L 980.459959 369.096563 
L 980.459959 360.696563 
L 956.459959 360.696563 
z
" style="fill: #17becf"/>
    </g>
    <g id="text_32">
     <!-- E -->
     <g transform="translate(990.059959 369.096563)scale(0.12 -0.12)">
      <defs>
       <path id="DejaVuSans-45" d="M 628 4666 
L 3578 4666 
L 3578 4134 
L 1259 4134 
L 1259 2753 
L 3481 2753 
L 3481 2222 
L 1259 2222 
L 1259 531 
L 3634 531 
L 3634 0 
L 628 0 
L 628 4666 
z
" transform="scale(0.015625)"/>
      </defs>
      <use xlink:href="#DejaVuSans-45"/>
     </g>
    </g>
    <g id="patch_136">
     <path d="M 956.459959 386.710312 
L 980.459959 386.710312 
L 980.459959 378.310313 
L 956.459959 378.310313 
z
" style="fill: #9edae5"/>
    </g>
    <g id="text_33">
     <!-- F -->
     <g transform="translate(990.059959 386.710312)scale(0.12 -0.12)">
      <defs>
       <path id="DejaVuSans-46" d="M 628 4666 
L 3309 4666 
L 3309 4134 
L 1259 4134 
L 1259 2759 
L 3109 2759 
L 3109 2228 
L 1259 2228 
L 1259 0 
L 628 0 
L 628 4666 
z
" transform="scale(0.015625)"/>
      </defs>
      <use xlink:href="#DejaVuSans-46"/>
     </g>
    </g>
    <g id="patch_137">
     <path d="M 956.459959 404.324062 
L 980.459959 404.324062 
L 980.459959 395.924062 
L 956.459959 395.924062 
z
" style="fill: #ffd131"/>
    </g>
    <g id="text_34">
     <!-- H -->
     <g transform="translate(990.059959 404.324062)scale(0.12 -0.12)">
      <defs>
       <path id="DejaVuSans-48" d="M 628 4666 
L 1259 4666 
L 1259 2753 
L 3553 2753 
L 3553 4666 
L 4184 4666 
L 4184 0 
L 3553 0 
L 3553 2222 
L 1259 2222 
L 1259 0 
L 628 0 
L 628 4666 
z
" transform="scale(0.015625)"/>
      </defs>
      <use xlink:href="#DejaVuSans-48"/>
     </g>
    </g>
    <g id="patch_138">
     <path d="M 956.459959 421.937812 
L 980.459959 421.937812 
L 980.459959 413.537812 
L 956.459959 413.537812 
z
" style="fill: #f4ac32"/>
    </g>
    <g id="text_35">
     <!-- I -->
     <g transform="translate(990.059959 421.937812)scale(0.12 -0.12)">
      <defs>
       <path id="DejaVuSans-49" d="M 628 4666 
L 1259 4666 
L 1259 0 
L 628 0 
L 628 4666 
z
" transform="scale(0.015625)"/>
      </defs>
      <use xlink:href="#DejaVuSans-49"/>
     </g>
    </g>
    <g id="patch_139">
     <path d="M 956.459959 439.551562 
L 980.459959 439.551562 
L 980.459959 431.151562 
L 956.459959 431.151562 
z
" style="fill: #dbb3b1"/>
    </g>
    <g id="text_36">
     <!-- P -->
     <g transform="translate(990.059959 439.551562)scale(0.12 -0.12)">
      <defs>
       <path id="DejaVuSans-50" d="M 1259 4147 
L 1259 2394 
L 2053 2394 
Q 2494 2394 2734 2622 
Q 2975 2850 2975 3272 
Q 2975 3691 2734 3919 
Q 2494 4147 2053 4147 
L 1259 4147 
z
M 628 4666 
L 2053 4666 
Q 2838 4666 3239 4311 
Q 3641 3956 3641 3272 
Q 3641 2581 3239 2228 
Q 2838 1875 2053 1875 
L 1259 1875 
L 1259 0 
L 628 0 
L 628 4666 
z
" transform="scale(0.015625)"/>
      </defs>
      <use xlink:href="#DejaVuSans-50"/>
     </g>
    </g>
    <g id="patch_140">
     <path d="M 956.459959 457.165312 
L 980.459959 457.165312 
L 980.459959 448.765312 
L 956.459959 448.765312 
z
" style="fill: #a5be00"/>
    </g>
    <g id="text_37">
     <!-- Q -->
     <g transform="translate(990.059959 457.165312)scale(0.12 -0.12)">
      <defs>
       <path id="DejaVuSans-51" d="M 2522 4238 
Q 1834 4238 1429 3725 
Q 1025 3213 1025 2328 
Q 1025 1447 1429 934 
Q 1834 422 2522 422 
Q 3209 422 3611 934 
Q 4013 1447 4013 2328 
Q 4013 3213 3611 3725 
Q 3209 4238 2522 4238 
z
M 3406 84 
L 4238 -825 
L 3475 -825 
L 2784 -78 
Q 2681 -84 2626 -87 
Q 2572 -91 2522 -91 
Q 1538 -91 948 567 
Q 359 1225 359 2328 
Q 359 3434 948 4092 
Q 1538 4750 2522 4750 
Q 3503 4750 4090 4092 
Q 4678 3434 4678 2328 
Q 4678 1516 4351 937 
Q 4025 359 3406 84 
z
" transform="scale(0.015625)"/>
      </defs>
      <use xlink:href="#DejaVuSans-51"/>
     </g>
    </g>
    <g id="patch_141">
     <path d="M 956.459959 474.779062 
L 980.459959 474.779062 
L 980.459959 466.379062 
L 956.459959 466.379062 
z
" style="fill: #3d52d5"/>
    </g>
    <g id="text_38">
     <!-- R -->
     <g transform="translate(990.059959 474.779062)scale(0.12 -0.12)">
      <use xlink:href="#DejaVuSans-52"/>
     </g>
    </g>
    <g id="patch_142">
     <path d="M 956.459959 492.392812 
L 980.459959 492.392812 
L 980.459959 483.992812 
L 956.459959 483.992812 
z
" style="fill: #ffeedd"/>
    </g>
    <g id="text_39">
     <!-- S -->
     <g transform="translate(990.059959 492.392812)scale(0.12 -0.12)">
      <defs>
       <path id="DejaVuSans-53" d="M 3425 4513 
L 3425 3897 
Q 3066 4069 2747 4153 
Q 2428 4238 2131 4238 
Q 1616 4238 1336 4038 
Q 1056 3838 1056 3469 
Q 1056 3159 1242 3001 
Q 1428 2844 1947 2747 
L 2328 2669 
Q 3034 2534 3370 2195 
Q 3706 1856 3706 1288 
Q 3706 609 3251 259 
Q 2797 -91 1919 -91 
Q 1588 -91 1214 -16 
Q 841 59 441 206 
L 441 856 
Q 825 641 1194 531 
Q 1563 422 1919 422 
Q 2459 422 2753 634 
Q 3047 847 3047 1241 
Q 3047 1584 2836 1778 
Q 2625 1972 2144 2069 
L 1759 2144 
Q 1053 2284 737 2584 
Q 422 2884 422 3419 
Q 422 4038 858 4394 
Q 1294 4750 2059 4750 
Q 2388 4750 2728 4690 
Q 3069 4631 3425 4513 
z
" transform="scale(0.015625)"/>
      </defs>
      <use xlink:href="#DejaVuSans-53"/>
     </g>
    </g>
   </g>
  </g>
 </g>
 <defs>
  <clipPath id="p67f646447a">
   <rect x="149.562514" y="0" width="794.155886" height="499.785874"/>
  </clipPath>
 </defs>
</svg>
